<svg xmlns="http://www.w3.org/2000/svg" id="SvgjsSvg182702" width="4096" height="1395.7565482426367" version="1.1" xmlns:xlink="http://www.w3.org/1999/xlink" xmlns:svgjs="http://svgjs.com/svgjs"><defs id="SvgjsDefs182703"></defs><g id="SvgjsG182704" transform="translate(328, 327.99999999999994) scale(34.4)" opacity="1"><defs id="SvgjsDefs51468"><linearGradient id="SvgjsLinearGradientzPi6LbRwC" gradientUnits="userSpaceOnUse" x1="83.92719058712085" y1="49.785948396791866" x2="-83.89719058712086" y2="-67.72594839679188"><stop id="SvgjsStop51471" stop-color="#0718f5" offset="0"></stop><stop id="SvgjsStop51472" stop-color="#f60920" offset="1"></stop></linearGradient><linearGradient id="SvgjsLinearGradienthaanr5ur_5" gradientUnits="userSpaceOnUse" x1="-2.2399274212658296" y1="52.39757977050342" x2="98.23994235824169" y2="43.60673025223538"><stop id="SvgjsStop51476" stop-color="#0017ff" offset="0"></stop><stop id="SvgjsStop51477" stop-color="#fa0202" offset="1"></stop></linearGradient><linearGradient id="SvgjsLinearGradientJYzrmxEo4B" gradientUnits="userSpaceOnUse" x1="93.61280556198184" y1="50.05" x2="6.399999999999999" y2="50.05"><stop id="SvgjsStop51481" stop-color="#fc0415" offset="0"></stop><stop id="SvgjsStop51482" stop-color="#0412ff" offset="1"></stop></linearGradient></defs><g id="SvgjsG51469" transform="scale(0.21645021645021645)" opacity="1"><g id="SvgjsG51473" class="text" transform="translate(230.78539927829985, 39.929658950456684) scale(1)" light-content="false" fill="url(#SvgjsLinearGradientzPi6LbRwC)"><path d="M-116.44 -3.42L-116.44 -1.04C-116.3 -0.73 -116.12 -0.48 -115.91 -0.29C-115.7 -0.1 -115.41 0 -115.05 0C-114.85 0 -114.65 -0.08 -114.46 -0.25C-114.27 -0.41 -114.16 -0.6 -114.12 -0.82C-114.17 -2.57 -114.17 -4.32 -114.12 -6.08C-114.06 -7.84 -113.99 -9.59 -113.9 -11.32L-113.76 -11.21C-113.76 -11.19 -113.7 -11.09 -113.57 -10.91C-113.44 -10.73 -113.3 -10.51 -113.13 -10.27C-112.97 -10.02 -112.8 -9.78 -112.62 -9.53C-112.43 -9.28 -112.29 -9.08 -112.18 -8.91C-112.16 -8.88 -112.14 -8.83 -112.12 -8.76C-112.1 -8.7 -112.09 -8.67 -112.07 -8.67L-107.67 -2.41C-107.63 -2.37 -107.57 -2.32 -107.49 -2.26C-107.41 -2.19 -107.32 -2.13 -107.23 -2.08C-107.14 -2.02 -107.05 -1.97 -106.96 -1.93C-106.86 -1.88 -106.79 -1.86 -106.74 -1.86C-106.34 -1.86 -106.03 -1.98 -105.81 -2.21C-105.59 -2.45 -105.48 -2.76 -105.48 -3.14C-105.48 -3.31 -105.55 -3.54 -105.68 -3.84C-105.82 -4.14 -105.9 -4.37 -105.92 -4.51L-106.85 -10.61L-106.85 -11.1C-106.92 -12.34 -106.98 -13.39 -107.02 -14.25C-107.07 -15.1 -107.11 -15.81 -107.16 -16.38C-107.21 -16.94 -107.24 -17.39 -107.27 -17.71C-107.3 -18.02 -107.32 -18.26 -107.35 -18.42C-107.38 -18.57 -107.4 -18.67 -107.42 -18.72C-107.44 -18.76 -107.45 -18.79 -107.45 -18.81C-107.47 -19.05 -107.47 -19.31 -107.47 -19.59C-107.47 -19.87 -107.5 -20.14 -107.56 -20.38C-107.61 -20.63 -107.72 -20.84 -107.88 -21C-108.05 -21.16 -108.3 -21.25 -108.65 -21.25C-109 -21.25 -109.24 -21.13 -109.39 -20.89L-109.39 -19.52C-109.39 -17.55 -109.32 -15.56 -109.17 -13.55C-109.02 -11.53 -108.83 -9.56 -108.6 -7.63L-108.65 -7.63C-108.71 -7.63 -108.77 -7.67 -108.84 -7.74L-110.43 -10.04L-110.54 -10.17L-110.71 -10.45C-110.83 -10.63 -110.97 -10.84 -111.14 -11.09C-111.3 -11.33 -111.47 -11.59 -111.64 -11.85C-111.82 -12.12 -111.96 -12.33 -112.07 -12.5C-112.09 -12.5 -112.11 -12.53 -112.14 -12.59C-112.16 -12.66 -112.18 -12.7 -112.18 -12.71C-112.41 -13.1 -112.68 -13.48 -112.98 -13.85C-113.29 -14.22 -113.54 -14.61 -113.76 -15.01L-113.82 -15.89C-113.84 -16.18 -113.89 -16.44 -113.98 -16.68C-114.07 -16.92 -114.22 -17.1 -114.42 -17.24C-114.62 -17.38 -114.91 -17.45 -115.29 -17.45C-115.5 -17.45 -115.67 -17.4 -115.81 -17.29C-115.96 -17.19 -116.06 -17.04 -116.12 -16.84C-116.08 -15.73 -116.07 -14.62 -116.1 -13.49C-116.13 -12.37 -116.17 -11.25 -116.22 -10.13C-116.28 -9.01 -116.33 -7.89 -116.38 -6.77C-116.42 -5.65 -116.44 -4.53 -116.44 -3.42Z M-104.28 -15.48L-104.28 -13.81L-104.28 -12.11C-104.28 -11.97 -104.26 -11.66 -104.23 -11.2C-104.21 -10.73 -104.18 -10.19 -104.14 -9.56C-104.1 -8.93 -104.07 -8.26 -104.03 -7.56C-103.99 -6.86 -103.96 -6.19 -103.93 -5.56C-103.91 -4.94 -103.88 -4.39 -103.85 -3.92C-103.82 -3.46 -103.81 -3.15 -103.81 -3.01C-103.81 -2.81 -103.8 -2.54 -103.78 -2.2C-103.76 -1.86 -103.71 -1.53 -103.63 -1.2C-103.55 -0.88 -103.42 -0.59 -103.24 -0.36C-103.05 -0.12 -102.79 0 -102.44 0C-102.02 0 -101.74 -0.09 -101.6 -0.27C-101.45 -0.46 -101.38 -0.73 -101.38 -1.09C-101.38 -2.33 -101.45 -3.62 -101.61 -4.95C-101.76 -6.28 -101.88 -7.57 -101.95 -8.8C-101.99 -9.32 -102 -9.83 -101.99 -10.35L-101.96 -11.91C-101.96 -12.43 -101.96 -12.95 -101.96 -13.47C-101.97 -13.99 -102.01 -14.5 -102.09 -15.01C-102.12 -15.32 -102.27 -15.56 -102.54 -15.72C-102.8 -15.89 -103.08 -15.97 -103.37 -15.97C-103.59 -15.97 -103.76 -15.94 -103.88 -15.87C-104 -15.81 -104.13 -15.68 -104.28 -15.48Z M-100.06 -4.18L-100.06 -3.53C-100.06 -2.71 -99.92 -1.99 -99.64 -1.38C-99.36 -0.77 -98.81 -0.31 -97.99 0L-97.85 0C-96.97 0 -96.18 -0.2 -95.47 -0.6C-94.76 -1 -94.13 -1.53 -93.58 -2.19C-92.71 -3.28 -91.91 -4.38 -91.19 -5.5C-90.47 -6.61 -89.88 -7.82 -89.43 -9.13L-89.43 -9.19C-89.43 -9.48 -89.55 -9.73 -89.78 -9.95C-90.02 -10.17 -90.27 -10.28 -90.52 -10.28C-90.87 -10.28 -91.12 -10.21 -91.29 -10.08C-91.45 -9.94 -91.57 -9.76 -91.66 -9.54C-91.74 -9.32 -91.81 -9.09 -91.86 -8.83C-91.92 -8.58 -92 -8.33 -92.11 -8.09C-92.14 -8.02 -92.2 -7.91 -92.27 -7.75C-92.34 -7.6 -92.42 -7.44 -92.5 -7.29C-92.59 -7.13 -92.67 -6.99 -92.75 -6.85C-92.83 -6.71 -92.88 -6.63 -92.9 -6.59C-93.47 -5.71 -94.06 -4.89 -94.69 -4.12C-95.32 -3.34 -96.07 -2.66 -96.95 -2.08C-97.04 -2.01 -97.14 -1.97 -97.25 -1.97C-97.43 -1.97 -97.57 -2.04 -97.66 -2.17C-97.75 -2.31 -97.81 -2.47 -97.85 -2.67C-97.89 -2.86 -97.9 -3.05 -97.9 -3.24L-97.9 -3.72C-97.9 -3.79 -97.9 -3.9 -97.89 -4.03C-97.88 -4.17 -97.88 -4.26 -97.88 -4.29L-96.59 -13.04C-96.56 -13.3 -96.5 -13.57 -96.41 -13.86C-96.33 -14.15 -96.21 -14.42 -96.06 -14.66C-95.9 -14.89 -95.72 -15.09 -95.5 -15.24C-95.28 -15.4 -95.02 -15.48 -94.73 -15.48C-94.46 -15.48 -94.24 -15.42 -94.06 -15.3C-93.89 -15.18 -93.73 -15.04 -93.57 -14.89C-93.42 -14.73 -93.26 -14.6 -93.09 -14.48C-92.93 -14.36 -92.72 -14.3 -92.46 -14.3C-92.15 -14.3 -91.92 -14.41 -91.75 -14.63C-91.59 -14.85 -91.51 -15.08 -91.51 -15.31C-91.51 -15.49 -91.52 -15.6 -91.55 -15.64C-91.57 -15.68 -91.68 -15.78 -91.86 -15.94C-92.12 -16.16 -92.36 -16.35 -92.59 -16.5C-92.81 -16.66 -93.05 -16.79 -93.28 -16.9C-93.52 -17.01 -93.77 -17.09 -94.04 -17.13C-94.3 -17.18 -94.6 -17.2 -94.92 -17.2C-95.67 -17.2 -96.28 -17.01 -96.76 -16.63C-97.23 -16.24 -97.62 -15.77 -97.92 -15.2C-98.22 -14.64 -98.46 -14.03 -98.64 -13.37C-98.82 -12.71 -99 -12.1 -99.16 -11.54C-99.16 -11.45 -99.2 -11.13 -99.27 -10.58C-99.33 -10.11 -99.42 -9.38 -99.54 -8.39C-99.67 -7.41 -99.85 -6.01 -100.06 -4.18Z M-88.31 -4.84C-88.31 -4.33 -88.22 -3.79 -88.06 -3.23C-87.9 -2.66 -87.65 -2.14 -87.34 -1.65C-87.02 -1.17 -86.63 -0.77 -86.16 -0.46C-85.7 -0.15 -85.16 0 -84.56 0C-83.85 0 -83.24 -0.24 -82.73 -0.71C-82.22 -1.18 -81.8 -1.76 -81.48 -2.43C-81.17 -3.11 -80.93 -3.82 -80.79 -4.58C-80.64 -5.34 -80.57 -5.99 -80.57 -6.54L-80.57 -8.2C-80.57 -8.93 -80.58 -9.69 -80.61 -10.49C-80.64 -11.28 -80.68 -12.04 -80.75 -12.76C-80.81 -13.48 -80.91 -14.02 -81.03 -14.38L-81.03 -14.52C-81.18 -14.87 -81.34 -15.26 -81.53 -15.7C-81.71 -16.13 -81.92 -16.54 -82.17 -16.91C-82.41 -17.29 -82.71 -17.6 -83.06 -17.86C-83.4 -18.11 -83.82 -18.24 -84.31 -18.24C-85.08 -18.2 -85.67 -18.09 -86.09 -17.9C-86.51 -17.71 -86.78 -17.36 -86.88 -16.87C-87.19 -16.29 -87.45 -15.6 -87.64 -14.81C-87.83 -14.01 -87.97 -13.19 -88.07 -12.33C-88.17 -11.48 -88.24 -10.63 -88.27 -9.79C-88.29 -8.95 -88.31 -8.18 -88.32 -7.48C-88.33 -6.78 -88.32 -6.19 -88.31 -5.71C-88.29 -5.24 -88.29 -4.95 -88.31 -4.84ZM-85.65 -3.01C-85.96 -4.61 -86.13 -6.11 -86.16 -7.51C-86.19 -8.9 -86.12 -10.16 -85.97 -11.28C-85.81 -12.4 -85.58 -13.37 -85.27 -14.19C-84.96 -15.01 -84.62 -15.66 -84.23 -16.13C-84.23 -16.15 -84.22 -16.19 -84.19 -16.24C-84.16 -16.3 -84.14 -16.33 -84.12 -16.35C-83.92 -16.19 -83.75 -15.89 -83.6 -15.45C-83.46 -15.01 -83.33 -14.5 -83.22 -13.9C-83.11 -13.31 -83.02 -12.68 -82.95 -12C-82.87 -11.33 -82.82 -10.69 -82.77 -10.08C-82.72 -9.47 -82.69 -8.91 -82.67 -8.42C-82.66 -7.93 -82.65 -7.57 -82.65 -7.33C-82.65 -6.33 -82.76 -5.37 -83 -4.47C-83.24 -3.57 -83.74 -2.77 -84.51 -2.08L-84.72 -2.08C-84.96 -2.08 -85.17 -2.18 -85.34 -2.39C-85.51 -2.6 -85.62 -2.81 -85.65 -3.01Z M-67.53 -13.04L-61.65 -3.23C-61.48 -2.97 -61.36 -2.66 -61.29 -2.28C-61.22 -1.91 -61.13 -1.55 -61.02 -1.22C-60.91 -0.88 -60.74 -0.59 -60.53 -0.36C-60.31 -0.12 -59.98 0 -59.54 0C-59.29 0 -59.09 -0.05 -58.97 -0.16C-58.84 -0.27 -58.74 -0.41 -58.68 -0.56C-58.62 -0.72 -58.58 -0.89 -58.57 -1.08C-58.56 -1.27 -58.55 -1.45 -58.53 -1.61C-58.51 -1.74 -58.48 -1.92 -58.45 -2.15L-58.34 -2.83C-58.3 -3.06 -58.26 -3.27 -58.23 -3.46C-58.19 -3.65 -58.17 -3.76 -58.17 -3.8L-55.06 -15.48L-55.06 -15.59C-55.06 -15.93 -55.22 -16.21 -55.54 -16.42C-55.85 -16.63 -56.17 -16.73 -56.48 -16.73C-56.79 -16.73 -57.04 -16.61 -57.24 -16.35C-57.44 -16.1 -57.52 -15.8 -57.46 -15.48L-58.53 -11.68L-58.64 -11.43L-60.14 -5.77L-60.25 -5.55C-60.29 -5.61 -60.38 -5.74 -60.53 -5.95C-60.67 -6.16 -60.77 -6.33 -60.83 -6.48C-61.68 -7.7 -62.4 -8.77 -62.99 -9.69C-63.57 -10.61 -64.05 -11.41 -64.44 -12.07C-64.82 -12.74 -65.13 -13.29 -65.38 -13.73C-65.63 -14.16 -65.84 -14.51 -66.04 -14.77C-66.23 -15.02 -66.42 -15.2 -66.62 -15.31C-66.82 -15.42 -67.07 -15.48 -67.36 -15.48C-67.6 -15.48 -67.83 -15.4 -68.04 -15.26C-68.26 -15.11 -68.37 -14.9 -68.37 -14.63C-68.37 -14.37 -68.28 -14.08 -68.1 -13.75C-67.92 -13.43 -67.73 -13.19 -67.53 -13.04Z M-53.72 -1.72L-53.72 -1.18C-53.72 -0.98 -53.69 -0.79 -53.63 -0.62C-53.58 -0.44 -53.49 -0.3 -53.36 -0.18C-53.23 -0.06 -53.04 0 -52.79 0C-52.53 0 -52.33 -0.05 -52.19 -0.15C-52.04 -0.25 -51.89 -0.4 -51.75 -0.6C-51.78 -1.28 -51.79 -1.95 -51.76 -2.63C-51.73 -3.3 -51.66 -3.96 -51.53 -4.62C-50.71 -4.99 -49.91 -5.42 -49.12 -5.93C-48.34 -6.44 -47.6 -6.96 -46.91 -7.49L-46.66 -7.49L-44.83 -3.58C-44.72 -3.36 -44.56 -3.23 -44.34 -3.19C-44.12 -3.14 -43.91 -3.12 -43.71 -3.12C-43.05 -3.12 -42.72 -3.45 -42.72 -4.1L-42.72 -4.18C-42.78 -4.29 -42.88 -4.49 -43.01 -4.77C-43.15 -5.05 -43.29 -5.35 -43.44 -5.66C-43.58 -5.97 -43.72 -6.27 -43.85 -6.56C-43.97 -6.85 -44.06 -7.05 -44.12 -7.16L-44.49 -7.9C-44.64 -8.21 -44.72 -8.44 -44.72 -8.59C-44.72 -8.64 -44.68 -8.71 -44.61 -8.8L-41.9 -10.17C-41.83 -10.3 -41.73 -10.42 -41.59 -10.53C-41.45 -10.64 -41.33 -10.75 -41.21 -10.87C-41.09 -10.99 -40.98 -11.12 -40.89 -11.27C-40.8 -11.41 -40.76 -11.58 -40.76 -11.79C-40.76 -11.91 -40.8 -12.04 -40.89 -12.18C-40.98 -12.32 -41.12 -12.39 -41.3 -12.39L-41.36 -12.39C-41.39 -12.37 -41.45 -12.35 -41.54 -12.32C-41.62 -12.29 -41.67 -12.26 -41.69 -12.22C-41.83 -12.17 -42.08 -12.06 -42.42 -11.89C-42.77 -11.73 -43.14 -11.56 -43.53 -11.38C-43.92 -11.19 -44.3 -11.02 -44.65 -10.86C-45.01 -10.69 -45.25 -10.57 -45.38 -10.5L-45.49 -10.61C-45.83 -11.7 -46.14 -12.63 -46.4 -13.4C-46.67 -14.16 -46.89 -14.81 -47.09 -15.34C-47.28 -15.87 -47.44 -16.31 -47.58 -16.65C-47.71 -17 -47.83 -17.3 -47.92 -17.55C-48.07 -17.83 -48.2 -18.13 -48.33 -18.46C-48.46 -18.79 -48.62 -19.09 -48.82 -19.36C-49.02 -19.63 -49.27 -19.86 -49.57 -20.03C-49.88 -20.2 -50.25 -20.26 -50.71 -20.21C-51.13 -20.21 -51.42 -20.07 -51.57 -19.78C-51.73 -19.5 -51.78 -19.18 -51.75 -18.81L-52.9 -10.28L-52.9 -10.17C-52.9 -10.12 -52.91 -9.99 -52.94 -9.8C-52.96 -9.61 -52.99 -9.41 -53.02 -9.19C-53.05 -8.97 -53.07 -8.76 -53.09 -8.57C-53.11 -8.38 -53.12 -8.26 -53.12 -8.2C-53.22 -7.13 -53.35 -6.05 -53.5 -4.98C-53.64 -3.9 -53.72 -2.82 -53.72 -1.72ZM-51.28 -7.03L-51.28 -7.74C-51.16 -8.94 -51.03 -10.07 -50.91 -11.13C-50.8 -12.19 -50.69 -13.12 -50.59 -13.93C-50.49 -14.74 -50.39 -15.4 -50.31 -15.91C-50.23 -16.42 -50.16 -16.73 -50.11 -16.84L-50 -16.73L-47.48 -9.57L-47.48 -9.35C-47.59 -9.28 -47.68 -9.21 -47.76 -9.16C-47.83 -9.11 -47.91 -9.06 -47.99 -9.02C-48.07 -8.99 -48.14 -8.95 -48.19 -8.91C-48.67 -8.6 -49.16 -8.27 -49.68 -7.9C-50.2 -7.54 -50.74 -7.25 -51.28 -7.03Z M-39.85 -3.42L-39.85 -1.04C-39.71 -0.73 -39.53 -0.48 -39.32 -0.29C-39.11 -0.1 -38.82 0 -38.46 0C-38.26 0 -38.06 -0.08 -37.87 -0.25C-37.68 -0.41 -37.57 -0.6 -37.53 -0.82C-37.58 -2.57 -37.58 -4.32 -37.53 -6.08C-37.47 -7.84 -37.4 -9.59 -37.31 -11.32L-37.17 -11.21C-37.17 -11.19 -37.11 -11.09 -36.98 -10.91C-36.85 -10.73 -36.71 -10.51 -36.54 -10.27C-36.38 -10.02 -36.21 -9.78 -36.03 -9.53C-35.84 -9.28 -35.7 -9.08 -35.59 -8.91C-35.57 -8.88 -35.55 -8.83 -35.53 -8.76C-35.51 -8.7 -35.5 -8.67 -35.48 -8.67L-31.08 -2.41C-31.04 -2.37 -30.98 -2.32 -30.9 -2.26C-30.82 -2.19 -30.73 -2.13 -30.64 -2.08C-30.55 -2.02 -30.46 -1.97 -30.37 -1.93C-30.27 -1.88 -30.2 -1.86 -30.15 -1.86C-29.75 -1.86 -29.44 -1.98 -29.22 -2.21C-29 -2.45 -28.89 -2.76 -28.89 -3.14C-28.89 -3.31 -28.96 -3.54 -29.09 -3.84C-29.23 -4.14 -29.31 -4.37 -29.33 -4.51L-30.26 -10.61L-30.26 -11.1C-30.33 -12.34 -30.39 -13.39 -30.43 -14.25C-30.48 -15.1 -30.52 -15.81 -30.57 -16.38C-30.62 -16.94 -30.65 -17.39 -30.68 -17.71C-30.71 -18.02 -30.73 -18.26 -30.76 -18.42C-30.79 -18.57 -30.81 -18.67 -30.83 -18.72C-30.85 -18.76 -30.86 -18.79 -30.86 -18.81C-30.88 -19.05 -30.88 -19.31 -30.88 -19.59C-30.88 -19.87 -30.91 -20.14 -30.97 -20.38C-31.02 -20.63 -31.13 -20.84 -31.29 -21C-31.46 -21.16 -31.71 -21.25 -32.06 -21.25C-32.41 -21.25 -32.65 -21.13 -32.8 -20.89L-32.8 -19.52C-32.8 -17.55 -32.73 -15.56 -32.58 -13.55C-32.43 -11.53 -32.24 -9.56 -32.01 -7.63L-32.06 -7.63C-32.12 -7.63 -32.18 -7.67 -32.25 -7.74L-33.84 -10.04L-33.95 -10.17L-34.13 -10.45C-34.24 -10.63 -34.38 -10.84 -34.55 -11.09C-34.71 -11.33 -34.88 -11.59 -35.05 -11.85C-35.23 -12.12 -35.37 -12.33 -35.48 -12.5C-35.5 -12.5 -35.52 -12.53 -35.55 -12.59C-35.57 -12.66 -35.59 -12.7 -35.59 -12.71C-35.82 -13.1 -36.09 -13.48 -36.39 -13.85C-36.7 -14.22 -36.96 -14.61 -37.17 -15.01L-37.23 -15.89C-37.25 -16.18 -37.3 -16.44 -37.39 -16.68C-37.48 -16.92 -37.63 -17.1 -37.83 -17.24C-38.03 -17.38 -38.32 -17.45 -38.71 -17.45C-38.91 -17.45 -39.08 -17.4 -39.22 -17.29C-39.37 -17.19 -39.47 -17.04 -39.53 -16.84C-39.49 -15.73 -39.48 -14.62 -39.51 -13.49C-39.54 -12.37 -39.58 -11.25 -39.63 -10.13C-39.69 -9.01 -39.74 -7.89 -39.79 -6.77C-39.83 -5.65 -39.85 -4.53 -39.85 -3.42Z M-13.25 -0.88C-13.25 -0.6 -13.16 -0.39 -12.99 -0.23C-12.82 -0.08 -12.59 0 -12.32 0C-11.99 0 -11.74 -0.05 -11.57 -0.16C-11.39 -0.27 -11.18 -0.46 -10.92 -0.71L-5.73 -5.88C-4.98 -6.63 -4.41 -7.52 -4.01 -8.56C-3.6 -9.6 -3.4 -10.64 -3.4 -11.68C-3.4 -12.82 -3.63 -13.73 -4.07 -14.38C-4.52 -15.04 -5.1 -15.54 -5.81 -15.87C-6.52 -16.21 -7.32 -16.43 -8.22 -16.53C-9.11 -16.63 -10.01 -16.7 -10.92 -16.73C-10.89 -16.92 -10.91 -17.08 -10.99 -17.23C-11.07 -17.37 -11.19 -17.49 -11.35 -17.58C-11.5 -17.67 -11.67 -17.75 -11.84 -17.8C-12.01 -17.86 -12.17 -17.88 -12.32 -17.88C-12.87 -17.88 -13.18 -17.73 -13.28 -17.42C-13.37 -17.11 -13.39 -16.7 -13.36 -16.19L-13.47 -16.05L-16.23 -14.68C-16.26 -14.61 -16.32 -14.52 -16.38 -14.42C-16.44 -14.32 -16.52 -14.25 -16.61 -14.19L-16.61 -13.37C-16.61 -13.3 -16.54 -13.24 -16.39 -13.19C-16.25 -13.15 -16.16 -13.1 -16.12 -13.04L-15.68 -13.04C-15.44 -13.04 -15.23 -13.08 -15.03 -13.17C-14.82 -13.25 -14.63 -13.34 -14.45 -13.44C-14.27 -13.54 -14.1 -13.63 -13.93 -13.71C-13.77 -13.79 -13.59 -13.84 -13.41 -13.84C-13.41 -12.16 -13.42 -10.5 -13.44 -8.86C-13.46 -7.22 -13.47 -5.56 -13.47 -3.88C-13.47 -3.57 -13.46 -3.24 -13.44 -2.9C-13.42 -2.55 -13.32 -2.24 -13.14 -1.97C-13.12 -1.95 -13.07 -1.91 -13 -1.86C-12.93 -1.8 -12.89 -1.76 -12.89 -1.72C-12.89 -1.58 -12.95 -1.44 -13.07 -1.31C-13.19 -1.18 -13.25 -1.04 -13.25 -0.88ZM-10.92 -3.34L-10.92 -14.68C-10.81 -14.77 -10.63 -14.83 -10.36 -14.86C-10.1 -14.89 -9.94 -14.9 -9.88 -14.9C-9.28 -14.9 -8.72 -14.84 -8.19 -14.71C-7.66 -14.58 -7.2 -14.38 -6.81 -14.1C-6.42 -13.81 -6.1 -13.45 -5.87 -13C-5.63 -12.56 -5.51 -12.01 -5.51 -11.38C-5.51 -10.7 -5.63 -10.06 -5.88 -9.45C-6.13 -8.84 -6.44 -8.25 -6.82 -7.7C-7.21 -7.14 -7.63 -6.62 -8.09 -6.13C-8.56 -5.63 -9 -5.17 -9.42 -4.73C-9.51 -4.64 -9.63 -4.53 -9.78 -4.4C-9.92 -4.27 -10.07 -4.14 -10.21 -4.01C-10.36 -3.87 -10.49 -3.75 -10.61 -3.65C-10.73 -3.55 -10.8 -3.49 -10.81 -3.47L-11.03 -3.34Z M-0.67 -0.6C-0.49 -0.36 -0.34 -0.2 -0.22 -0.11C-0.1 -0.02 0.1 0.03 0.37 0.03C0.93 0.03 1.47 -0.16 1.97 -0.53C2.47 -0.91 2.93 -1.35 3.35 -1.87C3.77 -2.39 4.16 -2.94 4.51 -3.51C4.87 -4.09 5.17 -4.58 5.43 -4.98C5.59 -5.2 5.83 -5.48 6.14 -5.84C6.45 -6.19 6.76 -6.56 7.07 -6.95C7.38 -7.33 7.65 -7.7 7.88 -8.05C8.1 -8.41 8.22 -8.7 8.22 -8.91C8.22 -9.06 8.14 -9.21 8 -9.38C7.85 -9.54 7.73 -9.64 7.64 -9.68C7.57 -9.72 7.45 -9.74 7.27 -9.75C7.1 -9.76 6.99 -9.73 6.93 -9.68C6.9 -9.68 6.81 -9.61 6.67 -9.46C6.54 -9.32 6.43 -9.21 6.36 -9.13C5.5 -8.08 4.8 -7.2 4.25 -6.51C3.71 -5.82 3.27 -5.26 2.94 -4.84C2.61 -4.42 2.38 -4.12 2.24 -3.94C2.11 -3.76 2.02 -3.64 1.98 -3.58C1.91 -3.49 1.8 -3.37 1.65 -3.23C1.51 -3.08 1.43 -3.01 1.41 -3.01L1.3 -3.01C1.3 -3.66 1.25 -4.32 1.16 -4.96C1.07 -5.61 1.03 -6.26 1.03 -6.92L1.03 -7.21C1.03 -7.32 1.03 -7.44 1.04 -7.55C1.05 -7.66 1.05 -7.76 1.05 -7.85L1.05 -7.98L5.32 -11.79C5.52 -11.93 5.66 -12.14 5.76 -12.41C5.85 -12.69 5.89 -12.93 5.89 -13.15C5.89 -13.37 5.81 -13.58 5.65 -13.78C5.48 -13.98 5.3 -14.08 5.1 -14.08C5.08 -14.08 4.9 -13.94 4.55 -13.66C4.21 -13.38 3.81 -13.05 3.35 -12.69C2.89 -12.32 2.45 -11.96 2.01 -11.61C1.57 -11.25 1.25 -11 1.05 -10.86L1.03 -10.83L1 -10.83C0.98 -10.83 0.95 -10.99 0.9 -11.31C0.86 -11.63 0.82 -11.99 0.78 -12.4C0.74 -12.81 0.71 -13.21 0.67 -13.59C0.63 -13.97 0.62 -14.24 0.62 -14.38C0.62 -14.47 0.62 -14.59 0.64 -14.74C0.66 -14.88 0.72 -14.98 0.83 -15.01L3.84 -16.3L3.95 -16.41L7.53 -18.13C7.73 -18.22 7.86 -18.36 7.92 -18.54C7.97 -18.72 8 -18.9 8 -19.09C8 -19.29 7.96 -19.44 7.88 -19.54C7.79 -19.64 7.64 -19.71 7.42 -19.74C7.31 -19.8 7.18 -19.82 7.03 -19.8C6.87 -19.78 6.58 -19.69 6.14 -19.52C5.7 -19.36 5.05 -19.1 4.2 -18.73C3.34 -18.37 2.15 -17.86 0.62 -17.2C0.58 -17.2 0.51 -17.19 0.4 -17.16C0.29 -17.13 0.21 -17.11 0.15 -17.09L0.04 -17.09C-0.07 -17.09 -0.16 -17.14 -0.25 -17.25C-0.33 -17.36 -0.43 -17.42 -0.56 -17.42C-1.16 -17.42 -1.58 -17.3 -1.82 -17.06C-2.06 -16.83 -2.17 -16.42 -2.17 -15.83C-2.17 -15.52 -2.1 -15.25 -1.96 -15.01C-1.81 -14.77 -1.73 -14.5 -1.71 -14.19C-1.69 -14.03 -1.67 -13.73 -1.64 -13.29C-1.61 -12.85 -1.58 -12.39 -1.54 -11.89C-1.51 -11.4 -1.47 -10.94 -1.44 -10.5C-1.4 -10.06 -1.38 -9.75 -1.38 -9.57L-1.38 -9.16C-1.38 -9 -1.41 -8.85 -1.48 -8.74C-1.54 -8.62 -1.6 -8.51 -1.67 -8.41C-1.73 -8.31 -1.8 -8.2 -1.86 -8.09C-1.92 -7.98 -1.96 -7.86 -1.96 -7.71C-1.96 -7.53 -1.93 -7.4 -1.87 -7.31C-1.82 -7.23 -1.76 -7.16 -1.7 -7.11C-1.63 -7.05 -1.57 -7.01 -1.5 -6.97C-1.44 -6.94 -1.4 -6.88 -1.38 -6.81C-1.29 -6.44 -1.25 -6.11 -1.27 -5.81C-1.29 -5.51 -1.29 -5.15 -1.27 -4.73C-1.24 -4 -1.17 -3.31 -1.08 -2.67C-0.99 -2.02 -0.85 -1.33 -0.67 -0.6Z M10.81 -6.34L11.25 -0.93C11.27 -0.78 11.33 -0.66 11.44 -0.55C11.55 -0.44 11.68 -0.34 11.81 -0.25C11.95 -0.15 12.09 -0.09 12.24 -0.04C12.38 0 12.51 0.03 12.62 0.03C12.78 0.03 12.92 -0.02 13.03 -0.11C13.14 -0.2 13.23 -0.31 13.3 -0.45C13.38 -0.59 13.43 -0.73 13.45 -0.89C13.48 -1.04 13.49 -1.18 13.49 -1.31C13.49 -1.97 13.43 -2.63 13.32 -3.29C13.2 -3.96 13.14 -4.64 13.14 -5.33C13.14 -5.37 13.15 -5.41 13.18 -5.47C13.21 -5.52 13.23 -5.55 13.25 -5.55C14.94 -5.55 16.43 -5.53 17.72 -5.5C19 -5.46 20.13 -5.41 21.1 -5.36C22.06 -5.3 22.89 -5.24 23.58 -5.17C24.28 -5.1 24.88 -5.02 25.4 -4.95C25.92 -4.88 26.38 -4.81 26.77 -4.76C27.16 -4.7 27.54 -4.66 27.9 -4.62L28.37 -4.62L28.83 -4.62C28.91 -4.71 28.98 -4.79 29.07 -4.84C29.15 -4.89 29.22 -4.95 29.29 -5.02C29.35 -5.08 29.4 -5.16 29.45 -5.26C29.49 -5.36 29.52 -5.5 29.52 -5.66C29.52 -5.97 29.41 -6.2 29.19 -6.36C28.97 -6.51 28.71 -6.62 28.41 -6.67C28.11 -6.73 27.8 -6.76 27.48 -6.77C27.16 -6.78 26.91 -6.79 26.73 -6.81L13.6 -7.63C15.74 -9.25 17.34 -10.47 18.42 -11.29C19.49 -12.11 20.07 -12.62 20.17 -12.82C20.4 -13.06 20.63 -13.35 20.84 -13.69C21.05 -14.02 21.23 -14.38 21.38 -14.75C21.54 -15.13 21.66 -15.5 21.75 -15.89C21.84 -16.27 21.89 -16.64 21.89 -17.01C21.89 -17.34 21.78 -17.61 21.57 -17.83C21.36 -18.05 21.11 -18.22 20.81 -18.36C20.51 -18.5 20.19 -18.59 19.85 -18.65C19.51 -18.7 19.23 -18.73 18.99 -18.73C18.21 -18.73 17.46 -18.62 16.75 -18.39C16.04 -18.16 15.36 -17.84 14.72 -17.42L14.62 -17.42L12.65 -15.7C12.57 -15.71 12.53 -15.8 12.51 -15.97C12.49 -16.13 12.45 -16.31 12.37 -16.5C12.3 -16.69 12.17 -16.86 11.99 -17.01C11.81 -17.15 11.53 -17.23 11.14 -17.23C11 -17.23 10.88 -17.21 10.79 -17.19C10.7 -17.16 10.62 -17.12 10.57 -17.06C10.51 -17.01 10.46 -16.93 10.42 -16.82C10.37 -16.71 10.31 -16.57 10.24 -16.41L10.24 -16.35L10.24 -16.3C10.24 -16.21 10.24 -16.04 10.25 -15.79C10.26 -15.54 10.27 -15.29 10.28 -15.01C10.29 -14.74 10.3 -14.48 10.32 -14.23C10.34 -13.99 10.35 -13.82 10.35 -13.73C10.35 -13.51 10.3 -13.32 10.2 -13.17C10.1 -13.01 9.99 -12.87 9.88 -12.73C9.78 -12.59 9.67 -12.45 9.57 -12.29C9.47 -12.14 9.42 -11.95 9.42 -11.73C9.42 -11.49 9.47 -11.31 9.57 -11.18C9.67 -11.06 9.78 -10.96 9.91 -10.9C10.04 -10.83 10.16 -10.78 10.27 -10.75C10.38 -10.71 10.44 -10.66 10.46 -10.61C10.5 -10.19 10.53 -9.81 10.55 -9.46C10.58 -9.11 10.6 -8.74 10.6 -8.34C10.6 -8.18 10.57 -8.03 10.53 -7.89C10.48 -7.75 10.46 -7.6 10.46 -7.44C10.46 -7.24 10.49 -7.06 10.55 -6.92C10.62 -6.77 10.71 -6.58 10.81 -6.34ZM12.65 -12.39L12.65 -12.82C13.54 -13.68 14.32 -14.36 14.98 -14.88C15.65 -15.39 16.22 -15.78 16.71 -16.05C17.19 -16.32 17.6 -16.51 17.95 -16.6C18.3 -16.69 18.61 -16.73 18.88 -16.73L19.33 -16.73C19.51 -16.73 19.59 -16.64 19.59 -16.46C19.59 -16.22 19.52 -15.93 19.37 -15.57C19.23 -15.22 19.04 -14.86 18.83 -14.49C18.61 -14.13 18.37 -13.79 18.12 -13.48C17.86 -13.17 17.62 -12.95 17.4 -12.82C16.31 -12.08 15.46 -11.5 14.86 -11.09C14.26 -10.68 13.81 -10.38 13.52 -10.19C13.23 -9.99 13.05 -9.88 12.97 -9.84C12.9 -9.81 12.86 -9.79 12.84 -9.79L12.76 -9.79C12.72 -10.26 12.69 -10.7 12.67 -11.1C12.66 -11.5 12.65 -11.93 12.65 -12.39Z M42.97 -1.04L42.97 -0.98C42.97 -0.78 43.03 -0.62 43.15 -0.49C43.27 -0.36 43.41 -0.26 43.59 -0.19C43.76 -0.12 43.94 -0.06 44.13 -0.03C44.32 0.01 44.48 0.03 44.61 0.03L44.86 0.03C44.93 0.03 44.99 0.02 45.05 0C47.33 -0.46 49.31 -0.82 51.01 -1.08C52.71 -1.34 54.16 -1.54 55.37 -1.68C56.58 -1.82 57.59 -1.9 58.38 -1.93C59.17 -1.96 59.81 -1.97 60.28 -1.97C60.52 -2.13 60.69 -2.3 60.8 -2.47C60.91 -2.65 60.96 -2.87 60.96 -3.14C60.96 -3.45 60.81 -3.68 60.51 -3.83C60.21 -3.97 59.94 -4.05 59.71 -4.05L46.88 -2.3L46.72 -2.3C46.66 -2.3 46.61 -2.3 46.55 -2.31C46.5 -2.32 46.45 -2.35 46.42 -2.41C46.62 -2.66 46.79 -2.98 46.95 -3.35C47.1 -3.72 47.32 -4 47.59 -4.18L52.1 -11.43C52.23 -11.52 52.35 -11.65 52.47 -11.83C52.59 -12 52.65 -12.18 52.65 -12.36C52.65 -12.69 52.58 -12.93 52.43 -13.1C52.29 -13.26 52.1 -13.38 51.87 -13.44C51.64 -13.5 51.39 -13.54 51.12 -13.54L50.35 -13.54C50.26 -13.54 50.11 -13.53 49.89 -13.52C49.67 -13.51 49.55 -13.51 49.53 -13.51L43.65 -12.71L43.03 -12.71C42.79 -12.71 42.56 -12.68 42.34 -12.62C42.12 -12.56 41.94 -12.46 41.79 -12.32C41.65 -12.18 41.58 -11.98 41.58 -11.7C41.58 -11.56 41.63 -11.42 41.74 -11.29C41.85 -11.17 41.99 -11.05 42.15 -10.95C42.31 -10.85 42.49 -10.77 42.67 -10.71C42.85 -10.64 43.01 -10.61 43.13 -10.61L43.41 -10.61L48.74 -11.43L49.51 -11.43C48.3 -9.52 47.31 -7.94 46.53 -6.71C45.74 -5.48 45.11 -4.49 44.63 -3.75C44.14 -3 43.78 -2.45 43.54 -2.11C43.31 -1.76 43.15 -1.52 43.08 -1.39C43.06 -1.36 43.04 -1.3 43.01 -1.22C42.98 -1.13 42.97 -1.08 42.97 -1.04Z M68.04 -9.35L71.52 -0.46C71.55 -0.37 71.63 -0.3 71.74 -0.25C71.85 -0.19 71.97 -0.15 72.11 -0.11C72.24 -0.07 72.37 -0.05 72.5 -0.03C72.63 -0.01 72.72 0 72.78 0C72.85 -1.8 72.94 -3.55 73.06 -5.24C73.18 -6.92 73.31 -8.49 73.46 -9.94C73.6 -11.39 73.76 -12.69 73.91 -13.85C74.07 -15.01 74.21 -15.98 74.35 -16.76C74.48 -17.55 74.6 -18.11 74.69 -18.46C74.78 -18.8 74.84 -18.89 74.88 -18.7C74.88 -18.85 74.85 -18.98 74.8 -19.1C74.74 -19.22 74.68 -19.36 74.61 -19.52C74.57 -19.54 74.5 -19.56 74.39 -19.58C74.28 -19.6 74.21 -19.61 74.17 -19.63C74.15 -19.65 74.11 -19.67 74.05 -19.7C73.98 -19.73 73.94 -19.74 73.92 -19.74C73.6 -19.74 73.3 -19.7 73.04 -19.61C72.77 -19.51 72.61 -19.29 72.56 -18.92C72.37 -17.68 72.22 -16.62 72.09 -15.72C71.96 -14.83 71.85 -14.05 71.76 -13.4C71.67 -12.74 71.6 -12.16 71.54 -11.66C71.49 -11.16 71.44 -10.69 71.38 -10.24C71.33 -9.79 71.27 -9.34 71.22 -8.87C71.16 -8.41 71.1 -7.88 71.03 -7.27C70.99 -7.36 70.95 -7.46 70.92 -7.57C70.88 -7.68 70.84 -7.78 70.81 -7.88L68.95 -15.7C68.89 -15.95 68.8 -16.11 68.66 -16.19C68.52 -16.26 68.34 -16.3 68.1 -16.3C67.84 -16.3 67.62 -16.26 67.42 -16.2C67.22 -16.14 67.04 -16.01 66.9 -15.83C66.66 -14.72 66.47 -13.81 66.34 -13.1C66.2 -12.39 66.09 -11.83 66.02 -11.42C65.95 -11.01 65.9 -10.72 65.87 -10.55C65.84 -10.39 65.83 -10.3 65.83 -10.28C65.83 -10.24 65.82 -10.14 65.79 -9.98C65.76 -9.82 65.7 -9.72 65.61 -9.68L64.11 -15.12C63.93 -15.69 63.5 -15.97 62.82 -15.97C62.62 -15.97 62.4 -15.89 62.15 -15.74C61.91 -15.58 61.78 -15.38 61.78 -15.12C61.78 -15.05 61.81 -14.95 61.85 -14.82C61.9 -14.69 61.95 -14.56 62 -14.42C62.06 -14.29 62.11 -14.16 62.17 -14.05C62.22 -13.95 62.26 -13.88 62.28 -13.86L63.53 -8.91L65.26 -2.87C65.27 -2.78 65.34 -2.7 65.46 -2.63C65.58 -2.55 65.71 -2.49 65.84 -2.45C65.98 -2.4 66.12 -2.37 66.25 -2.34C66.39 -2.31 66.5 -2.3 66.6 -2.3C66.83 -2.3 67.04 -2.38 67.22 -2.54C67.41 -2.71 67.53 -2.9 67.58 -3.12C67.58 -3.24 67.58 -3.49 67.59 -3.84C67.6 -4.2 67.62 -4.57 67.63 -4.96C67.65 -5.35 67.67 -5.72 67.68 -6.07C67.68 -6.42 67.69 -6.66 67.69 -6.81C67.71 -7.26 67.73 -7.71 67.74 -8.15C67.76 -8.59 67.83 -9.02 67.94 -9.46Z M76.22 -1.72L76.22 -1.18C76.22 -0.98 76.25 -0.79 76.3 -0.62C76.36 -0.44 76.45 -0.3 76.58 -0.18C76.7 -0.06 76.9 0 77.15 0C77.41 0 77.61 -0.05 77.75 -0.15C77.9 -0.25 78.04 -0.4 78.19 -0.6C78.15 -1.28 78.15 -1.95 78.18 -2.63C78.2 -3.3 78.28 -3.96 78.41 -4.62C79.23 -4.99 80.03 -5.42 80.81 -5.93C81.6 -6.44 82.34 -6.96 83.03 -7.49L83.28 -7.49L85.11 -3.58C85.22 -3.36 85.38 -3.23 85.6 -3.19C85.82 -3.14 86.03 -3.12 86.23 -3.12C86.88 -3.12 87.21 -3.45 87.21 -4.1L87.21 -4.18C87.16 -4.29 87.06 -4.49 86.93 -4.77C86.79 -5.05 86.65 -5.35 86.5 -5.66C86.36 -5.97 86.22 -6.27 86.09 -6.56C85.96 -6.85 85.87 -7.05 85.82 -7.16L85.45 -7.9C85.29 -8.21 85.22 -8.44 85.22 -8.59C85.22 -8.64 85.25 -8.71 85.33 -8.8L88.03 -10.17C88.11 -10.3 88.21 -10.42 88.35 -10.53C88.48 -10.64 88.61 -10.75 88.73 -10.87C88.85 -10.99 88.95 -11.12 89.04 -11.27C89.14 -11.41 89.18 -11.58 89.18 -11.79C89.18 -11.91 89.14 -12.04 89.04 -12.18C88.95 -12.32 88.82 -12.39 88.63 -12.39L88.58 -12.39C88.54 -12.37 88.48 -12.35 88.4 -12.32C88.32 -12.29 88.27 -12.26 88.25 -12.22C88.11 -12.17 87.86 -12.06 87.51 -11.89C87.17 -11.73 86.8 -11.56 86.41 -11.38C86.01 -11.19 85.64 -11.02 85.29 -10.86C84.93 -10.69 84.69 -10.57 84.56 -10.5L84.45 -10.61C84.1 -11.7 83.8 -12.63 83.54 -13.4C83.27 -14.16 83.04 -14.81 82.85 -15.34C82.66 -15.87 82.5 -16.31 82.36 -16.65C82.22 -17 82.11 -17.3 82.02 -17.55C81.87 -17.83 81.74 -18.13 81.61 -18.46C81.48 -18.79 81.32 -19.09 81.12 -19.36C80.91 -19.63 80.66 -19.86 80.36 -20.03C80.06 -20.2 79.68 -20.26 79.23 -20.21C78.81 -20.21 78.52 -20.07 78.37 -19.78C78.21 -19.5 78.15 -19.18 78.19 -18.81L77.04 -10.28L77.04 -10.17C77.04 -10.12 77.03 -9.99 77 -9.8C76.97 -9.61 76.95 -9.41 76.92 -9.19C76.89 -8.97 76.87 -8.76 76.85 -8.57C76.83 -8.38 76.82 -8.26 76.82 -8.2C76.71 -7.13 76.59 -6.05 76.44 -4.98C76.29 -3.9 76.22 -2.82 76.22 -1.72ZM78.65 -7.03L78.65 -7.74C78.78 -8.94 78.9 -10.07 79.02 -11.13C79.14 -12.19 79.25 -13.12 79.35 -13.93C79.45 -14.74 79.54 -15.4 79.63 -15.91C79.71 -16.42 79.78 -16.73 79.83 -16.84L79.94 -16.73L82.46 -9.57L82.46 -9.35C82.35 -9.28 82.25 -9.21 82.18 -9.16C82.11 -9.11 82.03 -9.06 81.95 -9.02C81.87 -8.99 81.8 -8.95 81.74 -8.91C81.27 -8.6 80.77 -8.27 80.25 -7.9C79.73 -7.54 79.2 -7.25 78.65 -7.03Z M90.14 -1.72L90.14 -1.18C90.14 -0.98 90.17 -0.79 90.22 -0.62C90.28 -0.44 90.37 -0.3 90.49 -0.18C90.62 -0.06 90.81 0 91.07 0C91.32 0 91.52 -0.05 91.67 -0.15C91.82 -0.25 91.96 -0.4 92.11 -0.6C92.07 -1.28 92.07 -1.95 92.09 -2.63C92.12 -3.3 92.2 -3.96 92.33 -4.62C93.15 -4.99 93.95 -5.42 94.73 -5.93C95.52 -6.44 96.25 -6.96 96.95 -7.49L97.19 -7.49L99.03 -3.58C99.13 -3.36 99.3 -3.23 99.52 -3.19C99.74 -3.14 99.95 -3.12 100.15 -3.12C100.8 -3.12 101.13 -3.45 101.13 -4.1L101.13 -4.18C101.08 -4.29 100.98 -4.49 100.84 -4.77C100.71 -5.05 100.57 -5.35 100.42 -5.66C100.27 -5.97 100.14 -6.27 100.01 -6.56C99.88 -6.85 99.79 -7.05 99.74 -7.16L99.37 -7.9C99.21 -8.21 99.13 -8.44 99.13 -8.59C99.13 -8.64 99.17 -8.71 99.24 -8.8L101.95 -10.17C102.02 -10.3 102.13 -10.42 102.27 -10.53C102.4 -10.64 102.53 -10.75 102.65 -10.87C102.77 -10.99 102.87 -11.12 102.96 -11.27C103.05 -11.41 103.1 -11.58 103.1 -11.79C103.1 -11.91 103.05 -12.04 102.96 -12.18C102.87 -12.32 102.74 -12.39 102.55 -12.39L102.5 -12.39C102.46 -12.37 102.4 -12.35 102.32 -12.32C102.24 -12.29 102.19 -12.26 102.17 -12.22C102.02 -12.17 101.78 -12.06 101.43 -11.89C101.09 -11.73 100.72 -11.56 100.32 -11.38C99.93 -11.19 99.56 -11.02 99.2 -10.86C98.85 -10.69 98.61 -10.57 98.48 -10.5L98.37 -10.61C98.02 -11.7 97.72 -12.63 97.45 -13.4C97.19 -14.16 96.96 -14.81 96.77 -15.34C96.58 -15.87 96.41 -16.31 96.28 -16.65C96.14 -17 96.03 -17.3 95.94 -17.55C95.79 -17.83 95.65 -18.13 95.53 -18.46C95.4 -18.79 95.23 -19.09 95.03 -19.36C94.83 -19.63 94.58 -19.86 94.28 -20.03C93.98 -20.2 93.6 -20.26 93.15 -20.21C92.73 -20.21 92.44 -20.07 92.29 -19.78C92.13 -19.5 92.07 -19.18 92.11 -18.81L90.96 -10.28L90.96 -10.17C90.96 -10.12 90.95 -9.99 90.92 -9.8C90.89 -9.61 90.86 -9.41 90.84 -9.19C90.81 -8.97 90.79 -8.76 90.77 -8.57C90.75 -8.38 90.74 -8.26 90.74 -8.2C90.63 -7.13 90.5 -6.05 90.36 -4.98C90.21 -3.9 90.14 -2.82 90.14 -1.72ZM92.57 -7.03L92.57 -7.74C92.7 -8.94 92.82 -10.07 92.94 -11.13C93.06 -12.19 93.17 -13.12 93.27 -13.93C93.37 -14.74 93.46 -15.4 93.54 -15.91C93.63 -16.42 93.69 -16.73 93.75 -16.84L93.86 -16.73L96.37 -9.57L96.37 -9.35C96.26 -9.28 96.17 -9.21 96.1 -9.16C96.03 -9.11 95.95 -9.06 95.87 -9.02C95.79 -8.99 95.72 -8.95 95.66 -8.91C95.19 -8.6 94.69 -8.27 94.17 -7.9C93.65 -7.54 93.12 -7.25 92.57 -7.03Z M113.6 2.38C113.65 2.63 113.8 2.85 114.05 3.04C114.3 3.22 114.56 3.31 114.83 3.31C115.09 3.31 115.31 3.19 115.5 2.94C115.69 2.69 115.79 2.44 115.79 2.19L115.79 2.13C115.79 2.1 115.77 2.01 115.73 1.86C115.7 1.71 115.65 1.56 115.61 1.39C115.56 1.23 115.52 1.07 115.49 0.92C115.45 0.76 115.42 0.67 115.4 0.63C115.26 -0.23 115.17 -1.11 115.13 -2.02C115.09 -2.93 115.08 -3.83 115.08 -4.7C115.08 -5.43 115.13 -6.16 115.23 -6.89C115.33 -7.62 115.35 -8.35 115.29 -9.08C115.64 -9.3 115.92 -9.48 116.14 -9.64C116.36 -9.79 116.47 -10.07 116.47 -10.47C116.47 -10.53 116.43 -10.59 116.36 -10.65C116.29 -10.71 116.2 -10.77 116.09 -10.83C115.98 -10.88 115.87 -10.93 115.77 -10.96C115.67 -11 115.6 -11.02 115.54 -11.02C115.29 -10.98 115 -10.92 114.69 -10.83C114.38 -10.74 114.08 -10.63 113.78 -10.51C113.48 -10.4 113.19 -10.28 112.92 -10.16C112.64 -10.04 112.41 -9.94 112.21 -9.87C111.97 -9.78 111.71 -9.72 111.43 -9.69L110.58 -9.61C110.3 -9.58 110.03 -9.54 109.79 -9.47C109.54 -9.41 109.34 -9.32 109.2 -9.19C109.14 -9.11 109.11 -9.01 109.09 -8.89C109.07 -8.76 109.06 -8.65 109.06 -8.56C109.06 -8.34 109.12 -8.17 109.24 -8.04C109.36 -7.91 109.5 -7.81 109.68 -7.74C109.85 -7.67 110.03 -7.62 110.22 -7.59C110.41 -7.56 110.59 -7.55 110.76 -7.55C111.03 -7.55 111.29 -7.57 111.55 -7.62C111.8 -7.66 112.06 -7.72 112.31 -7.79L112.31 -7.68C112.31 -7.67 112.28 -7.59 112.22 -7.45C112.15 -7.31 112.08 -7.16 112 -7C111.92 -6.84 111.83 -6.67 111.73 -6.49C111.63 -6.32 111.55 -6.18 111.49 -6.07C111.44 -5.96 111.33 -5.77 111.15 -5.5C110.98 -5.22 110.8 -4.93 110.61 -4.62C110.41 -4.31 110.23 -4.02 110.04 -3.75C109.86 -3.47 109.74 -3.29 109.66 -3.2C109.52 -2.96 109.31 -2.76 109.03 -2.6C108.76 -2.43 108.5 -2.35 108.24 -2.35C107.73 -2.35 107.29 -2.53 106.91 -2.9C106.54 -3.26 106.26 -3.66 106.08 -4.1C106.08 -4.16 106.08 -4.28 106.07 -4.47C106.06 -4.66 106.05 -4.79 106.05 -4.84C106.05 -5.53 106.16 -6.17 106.38 -6.75C106.6 -7.34 106.81 -7.95 107.01 -8.59C107.63 -9.64 108.33 -10.66 109.12 -11.63C109.9 -12.61 110.77 -13.49 111.74 -14.27C111.89 -14.36 112.09 -14.44 112.34 -14.51C112.6 -14.57 112.84 -14.64 113.08 -14.71C113.32 -14.78 113.52 -14.88 113.7 -15C113.87 -15.12 113.96 -15.29 113.96 -15.5C113.96 -15.78 113.86 -15.97 113.68 -16.09C113.5 -16.21 113.27 -16.25 113 -16.21C112.47 -16.18 111.9 -16.06 111.29 -15.87C110.68 -15.68 110.17 -15.38 109.77 -14.96L106.79 -11.81C106.74 -11.76 106.64 -11.63 106.49 -11.42C106.34 -11.21 106.18 -10.97 106.01 -10.72C105.84 -10.46 105.67 -10.21 105.52 -9.97C105.36 -9.72 105.25 -9.53 105.18 -9.41C104.81 -8.71 104.5 -7.96 104.25 -7.15C103.99 -6.34 103.87 -5.54 103.87 -4.76C103.87 -4.19 104 -3.65 104.26 -3.14C104.53 -2.63 104.87 -2.18 105.3 -1.79C105.73 -1.4 106.21 -1.08 106.75 -0.85C107.29 -0.61 107.83 -0.49 108.38 -0.49C109.05 -0.49 109.63 -0.69 110.13 -1.08C110.62 -1.47 111.07 -1.9 111.49 -2.38C111.62 -2.52 111.73 -2.7 111.82 -2.91C111.91 -3.12 112 -3.33 112.08 -3.54C112.16 -3.75 112.26 -3.95 112.37 -4.14C112.48 -4.33 112.62 -4.48 112.78 -4.57C112.82 -3.49 112.89 -2.34 113.01 -1.11C113.13 0.12 113.33 1.29 113.6 2.38Z"></path></g><rect id="SvgjsRect51474" width="236.8915466596577" height="3.3048143282726214" fill="#454545" transform="translate(110.3665861560671, 41.55129501669185) scale(1)" light-content="false"></rect><g id="SvgjsG51478" class="wmCO5FRyU" transform="translate(5.350608014324017, -18.754484149976253) scale(1.0416663771639159)" light-content="false" non-strokable="false" fill="url(#SvgjsLinearGradienthaanr5ur_5)"><path d="M28.416 76.572a4.01 4.01 0 0 1-2.832-1.172L1.172 50.844A4.02 4.02 0 0 1 0 48a4.03 4.03 0 0 1 1.176-2.848l24.412-24.548a3.978 3.978 0 0 1 5.656.004 4.048 4.048 0 0 1-.004 5.696L9.664 48l21.58 21.704a4.042 4.042 0 0 1 0 5.688 3.978 3.978 0 0 1-2.828 1.18zm39.172 0a3.963 3.963 0 0 1-2.828-1.18 4.038 4.038 0 0 1 0-5.697L86.344 48 64.76 26.304a4.037 4.037 0 0 1 0-5.696 3.978 3.978 0 0 1 5.656-.008l24.412 24.552A4.015 4.015 0 0 1 96 48c0 1.068-.42 2.088-1.172 2.844L70.416 75.393a3.96 3.96 0 0 1-2.828 1.179zM38.348 78a4.03 4.03 0 0 1-1.436-.264 4.045 4.045 0 0 1-2.296-5.213l19.868-51.947a3.992 3.992 0 0 1 5.168-2.304c2.06.796 3.088 3.124 2.296 5.204L42.072 75.424A3.983 3.983 0 0 1 38.348 78z"></path></g><g id="SvgjsG51479" class="text" transform="translate(231.16000000000003, 87.44276414627524) scale(1)" light-content="false" fill="#444444"><path d="M-230.58 -14.72C-230.56 -14.4 -230.52 -13.9 -230.47 -13.21C-230.41 -12.53 -230.34 -11.76 -230.27 -10.9C-230.19 -10.04 -230.11 -9.13 -230.04 -8.18C-229.96 -7.24 -229.89 -6.33 -229.83 -5.47C-229.76 -4.61 -229.7 -3.84 -229.64 -3.15C-229.58 -2.47 -229.54 -1.97 -229.5 -1.65C-229.48 -1.36 -229.46 -1.11 -229.44 -0.9C-229.42 -0.68 -229.38 -0.49 -229.3 -0.33C-229.22 -0.17 -229.09 -0.04 -228.9 0.04C-228.71 0.13 -228.45 0.17 -228.11 0.17L-228.11 -7.62L-220.78 -9.83C-220.72 -9.96 -220.74 -10.07 -220.83 -10.15C-220.93 -10.22 -221.06 -10.28 -221.23 -10.33C-221.4 -10.38 -221.58 -10.41 -221.76 -10.41C-221.94 -10.42 -222.06 -10.43 -222.14 -10.43C-222.67 -10.43 -223.19 -10.37 -223.69 -10.24C-224.19 -10.12 -224.68 -9.98 -225.17 -9.83C-225.65 -9.68 -226.13 -9.54 -226.61 -9.42C-227.1 -9.3 -227.6 -9.24 -228.11 -9.24C-228.14 -9.24 -228.2 -9.24 -228.26 -9.25C-228.33 -9.26 -228.38 -9.26 -228.42 -9.26C-228.57 -10.14 -228.7 -10.94 -228.8 -11.67C-228.91 -12.39 -228.96 -13.17 -228.96 -13.98C-228.96 -14.34 -228.94 -14.65 -228.9 -14.92C-228.86 -15.18 -228.7 -15.48 -228.42 -15.8C-228.21 -15.86 -227.89 -15.95 -227.47 -16.07C-227.04 -16.19 -226.56 -16.33 -226.02 -16.48C-225.48 -16.63 -224.91 -16.79 -224.31 -16.94C-223.72 -17.09 -223.15 -17.24 -222.62 -17.38C-222.09 -17.52 -221.61 -17.65 -221.17 -17.76C-220.74 -17.87 -220.42 -17.96 -220.24 -18.02C-219.97 -18.07 -219.73 -18.1 -219.52 -18.1C-219.32 -18.1 -219.13 -18.13 -218.97 -18.19C-218.81 -18.24 -218.69 -18.35 -218.6 -18.51C-218.52 -18.67 -218.47 -18.94 -218.47 -19.3C-218.55 -19.3 -218.7 -19.29 -218.91 -19.27C-219.13 -19.25 -219.36 -19.23 -219.61 -19.21C-219.86 -19.19 -220.09 -19.17 -220.31 -19.15C-220.52 -19.13 -220.68 -19.12 -220.78 -19.1C-221 -19.06 -221.36 -18.98 -221.84 -18.87C-222.32 -18.76 -222.87 -18.63 -223.49 -18.49C-224.1 -18.34 -224.75 -18.2 -225.42 -18.05C-226.09 -17.89 -226.73 -17.74 -227.34 -17.59C-227.95 -17.44 -228.49 -17.3 -228.97 -17.18C-229.46 -17.06 -229.81 -16.97 -230.04 -16.91C-230.11 -16.91 -230.21 -16.86 -230.32 -16.77C-230.44 -16.67 -230.55 -16.56 -230.66 -16.44C-230.78 -16.32 -230.88 -16.2 -230.98 -16.08C-231.07 -15.97 -231.13 -15.88 -231.15 -15.8C-231.17 -15.74 -231.16 -15.66 -231.12 -15.54C-231.08 -15.43 -231.03 -15.32 -230.98 -15.2C-230.92 -15.09 -230.85 -14.99 -230.78 -14.89C-230.7 -14.8 -230.64 -14.74 -230.58 -14.72Z M-216.56 -11.08L-216.56 -10.71L-216.56 -10.16C-216.56 -9.96 -216.55 -9.78 -216.54 -9.61C-216.53 -9.43 -216.53 -9.32 -216.53 -9.26C-216.49 -8.83 -216.46 -8.31 -216.43 -7.72C-216.4 -7.12 -216.37 -6.5 -216.33 -5.85C-216.29 -5.21 -216.25 -4.58 -216.2 -3.95C-216.16 -3.32 -216.12 -2.76 -216.09 -2.24C-216.06 -1.73 -216.03 -1.32 -216 -1.01L-215.96 -0.54L-214.88 -0.54C-215.11 -2.3 -215.19 -3.77 -215.12 -4.96C-215.06 -6.14 -214.88 -7.09 -214.6 -7.81C-214.31 -8.53 -213.95 -9.06 -213.52 -9.39C-213.08 -9.72 -212.61 -9.92 -212.1 -9.97C-211.58 -10.03 -211.06 -9.97 -210.52 -9.8C-209.98 -9.63 -209.46 -9.41 -208.97 -9.12C-208.74 -9.54 -208.71 -9.9 -208.86 -10.22C-209.01 -10.53 -209.27 -10.77 -209.64 -10.95C-210.01 -11.13 -210.46 -11.25 -210.99 -11.3C-211.52 -11.34 -212.05 -11.32 -212.58 -11.24C-213.11 -11.15 -213.61 -10.98 -214.07 -10.73C-214.54 -10.47 -214.89 -10.14 -215.14 -9.72C-215.17 -9.91 -215.22 -10.1 -215.28 -10.3C-215.34 -10.5 -215.42 -10.68 -215.53 -10.83C-215.65 -10.98 -215.79 -11.08 -215.96 -11.14C-216.13 -11.2 -216.33 -11.18 -216.56 -11.08Z M-204.64 -5.2C-204.64 -3.8 -204.42 -2.69 -203.97 -1.88C-203.53 -1.06 -202.97 -0.51 -202.3 -0.21C-201.62 0.08 -200.9 0.13 -200.14 -0.06C-199.37 -0.25 -198.65 -0.62 -197.98 -1.17C-197.3 -1.71 -196.75 -2.43 -196.31 -3.32C-195.88 -4.22 -195.66 -5.23 -195.66 -6.37C-195.62 -7.14 -195.7 -7.94 -195.89 -8.75C-196.08 -9.57 -196.36 -10.31 -196.73 -10.97C-197.09 -11.63 -197.54 -12.17 -198.06 -12.59C-198.58 -13.01 -199.15 -13.21 -199.75 -13.21C-200.34 -13.21 -200.87 -13.08 -201.34 -12.8C-201.82 -12.53 -202.23 -12.17 -202.59 -11.72C-202.95 -11.28 -203.26 -10.77 -203.52 -10.2C-203.77 -9.63 -203.99 -9.06 -204.16 -8.47C-204.33 -7.88 -204.45 -7.3 -204.53 -6.72C-204.6 -6.14 -204.64 -5.64 -204.64 -5.2ZM-203.59 -5.09C-203.59 -5.43 -203.56 -5.83 -203.49 -6.29C-203.42 -6.76 -203.32 -7.24 -203.18 -7.73C-203.03 -8.22 -202.86 -8.71 -202.65 -9.21C-202.44 -9.7 -202.19 -10.14 -201.9 -10.53C-201.6 -10.92 -201.28 -11.22 -200.92 -11.45C-200.56 -11.68 -200.15 -11.79 -199.69 -11.79C-199.22 -11.79 -198.8 -11.65 -198.43 -11.35C-198.06 -11.06 -197.75 -10.66 -197.49 -10.16C-197.24 -9.66 -197.04 -9.08 -196.9 -8.44C-196.75 -7.8 -196.7 -7.13 -196.74 -6.45C-196.78 -5.54 -196.97 -4.72 -197.32 -3.99C-197.67 -3.26 -198.09 -2.66 -198.59 -2.17C-199.08 -1.69 -199.61 -1.35 -200.18 -1.17C-200.75 -0.98 -201.27 -0.98 -201.76 -1.18C-202.24 -1.38 -202.65 -1.79 -202.99 -2.42C-203.33 -3.04 -203.53 -3.93 -203.59 -5.09Z M-190.9 -0.14C-190.88 -0.12 -190.82 -0.1 -190.72 -0.09C-190.61 -0.07 -190.5 -0.05 -190.38 -0.04C-190.25 -0.03 -190.14 -0.03 -190.04 -0.03C-189.93 -0.03 -189.86 -0.02 -189.82 0C-189.8 -1.33 -189.72 -2.69 -189.58 -4.08C-189.44 -5.47 -189.21 -6.76 -188.9 -7.96C-188.59 -9.15 -188.17 -10.19 -187.65 -11.08C-187.13 -11.97 -186.48 -12.58 -185.7 -12.9C-184.94 -12.9 -184.33 -12.66 -183.86 -12.18C-183.38 -11.69 -183.02 -11.07 -182.76 -10.3C-182.51 -9.53 -182.33 -8.69 -182.24 -7.76C-182.14 -6.83 -182.09 -5.93 -182.08 -5.06C-182.07 -4.19 -182.09 -3.4 -182.14 -2.69C-182.18 -1.98 -182.22 -1.45 -182.24 -1.11C-182.31 -0.63 -182.33 -0.32 -182.28 -0.16C-182.23 0 -182.15 0.09 -182.04 0.1C-181.92 0.11 -181.78 0.07 -181.61 -0.01C-181.44 -0.1 -181.27 -0.16 -181.1 -0.2C-181.1 -1.17 -181.09 -2.17 -181.07 -3.23C-181.05 -4.28 -181.07 -5.31 -181.11 -6.34C-181.16 -7.36 -181.25 -8.33 -181.4 -9.24C-181.54 -10.15 -181.77 -10.95 -182.08 -11.65C-182.39 -12.35 -182.82 -12.91 -183.36 -13.33C-183.9 -13.74 -184.58 -13.97 -185.42 -14.01C-185.95 -14.05 -186.42 -13.97 -186.82 -13.78C-187.23 -13.59 -187.6 -13.33 -187.92 -12.99C-188.24 -12.65 -188.51 -12.25 -188.73 -11.81C-188.95 -11.36 -189.13 -10.91 -189.28 -10.46C-189.43 -10 -189.55 -9.56 -189.62 -9.12C-189.7 -8.69 -189.76 -8.31 -189.79 -7.99L-189.79 -8.65C-189.79 -8.97 -189.81 -9.31 -189.84 -9.69C-189.87 -10.07 -189.91 -10.45 -189.96 -10.83C-190.02 -11.21 -190.12 -11.52 -190.25 -11.78C-190.38 -12.03 -190.55 -12.2 -190.75 -12.28C-190.95 -12.35 -191.19 -12.28 -191.47 -12.05L-191.47 -11.89C-191.47 -11.83 -191.47 -11.75 -191.46 -11.65C-191.45 -11.56 -191.44 -11.47 -191.43 -11.4C-191.42 -11.32 -191.41 -11.27 -191.41 -11.25C-191.36 -10.95 -191.31 -10.51 -191.29 -9.93C-191.26 -9.35 -191.23 -8.71 -191.22 -7.99C-191.2 -7.27 -191.18 -6.51 -191.16 -5.71C-191.14 -4.92 -191.12 -4.15 -191.09 -3.42C-191.06 -2.69 -191.03 -2.04 -191 -1.46C-190.97 -0.89 -190.94 -0.45 -190.9 -0.14Z M-173.41 -10.32C-173.41 -9.71 -173.45 -9.04 -173.53 -8.3C-173.6 -7.56 -173.66 -6.81 -173.68 -6.05C-173.71 -5.3 -173.69 -4.55 -173.61 -3.82C-173.54 -3.09 -173.36 -2.44 -173.07 -1.88C-172.79 -1.31 -172.36 -0.85 -171.79 -0.5C-171.23 -0.15 -170.46 0.03 -169.49 0.03C-169.28 0.03 -169.05 0 -168.78 -0.04C-168.52 -0.09 -168.27 -0.17 -168.03 -0.27C-167.79 -0.37 -167.58 -0.52 -167.4 -0.7C-167.22 -0.88 -167.12 -1.11 -167.08 -1.39C-168.23 -1.13 -169.16 -1.08 -169.86 -1.24C-170.56 -1.4 -171.1 -1.69 -171.48 -2.12C-171.86 -2.54 -172.1 -3.08 -172.19 -3.74C-172.29 -4.39 -172.31 -5.1 -172.25 -5.85C-172.19 -6.61 -172.08 -7.38 -171.91 -8.16C-171.74 -8.93 -171.58 -9.66 -171.43 -10.34C-171.27 -10.4 -171.04 -10.44 -170.73 -10.46C-170.42 -10.48 -170.08 -10.5 -169.71 -10.51C-169.34 -10.53 -168.99 -10.55 -168.67 -10.57C-168.35 -10.59 -168.11 -10.6 -167.96 -10.6L-167.96 -11.99L-171.37 -11.88C-171.43 -12.45 -171.44 -12.96 -171.41 -13.41C-171.38 -13.87 -171.34 -14.26 -171.3 -14.58C-171.25 -14.9 -171.22 -15.17 -171.21 -15.39C-171.2 -15.61 -171.25 -15.77 -171.34 -15.89C-171.43 -16 -171.61 -16.07 -171.87 -16.1C-172.12 -16.13 -172.5 -16.1 -172.99 -16.03C-172.99 -15.48 -172.98 -15.08 -172.97 -14.82C-172.96 -14.56 -172.96 -14.34 -172.95 -14.14C-172.94 -13.94 -172.94 -13.7 -172.96 -13.41C-172.98 -13.13 -173.02 -12.66 -173.07 -11.99L-177.08 -11.71C-177.02 -11.23 -176.98 -10.86 -176.95 -10.59C-176.92 -10.31 -176.86 -10.17 -176.77 -10.17C-176.56 -10.17 -176.3 -10.19 -176 -10.23C-175.7 -10.27 -175.38 -10.3 -175.05 -10.33C-174.72 -10.36 -174.4 -10.38 -174.11 -10.39C-173.82 -10.4 -173.59 -10.37 -173.41 -10.32Z M-149.18 -6.68C-149.24 -6.15 -149.26 -5.6 -149.25 -5.03C-149.24 -4.46 -149.19 -3.91 -149.09 -3.38C-149 -2.85 -148.86 -2.35 -148.67 -1.89C-148.48 -1.43 -148.23 -1.03 -147.93 -0.71C-147.63 -0.39 -147.26 -0.16 -146.82 -0.03C-146.39 0.1 -145.87 0.11 -145.29 0C-145.17 0 -144.96 -0.02 -144.66 -0.06C-144.36 -0.09 -144.03 -0.14 -143.68 -0.2C-143.33 -0.26 -143 -0.32 -142.69 -0.38C-142.37 -0.45 -142.14 -0.5 -141.99 -0.54C-141.97 -0.56 -141.92 -0.6 -141.85 -0.67C-141.77 -0.73 -141.7 -0.81 -141.62 -0.9C-141.55 -0.98 -141.48 -1.07 -141.42 -1.17C-141.37 -1.26 -141.34 -1.35 -141.34 -1.42C-141.62 -1.42 -141.98 -1.4 -142.42 -1.36C-142.85 -1.33 -143.32 -1.31 -143.81 -1.31C-144.3 -1.31 -144.8 -1.34 -145.3 -1.39C-145.8 -1.45 -146.25 -1.56 -146.65 -1.73C-147.05 -1.9 -147.38 -2.15 -147.63 -2.49C-147.89 -2.82 -148.02 -3.25 -148.02 -3.78L-148.02 -4.28C-148.02 -4.49 -148.01 -4.74 -147.99 -5.02C-147.97 -5.29 -147.94 -5.57 -147.92 -5.87C-147.89 -6.16 -147.85 -6.43 -147.82 -6.68C-147.78 -6.92 -147.73 -7.13 -147.67 -7.29C-147.62 -7.45 -147.55 -7.54 -147.48 -7.56L-141.48 -8.67C-141.31 -8.88 -141.23 -9.12 -141.24 -9.41C-141.25 -9.69 -141.32 -9.98 -141.45 -10.29C-141.58 -10.59 -141.77 -10.88 -142 -11.15C-142.24 -11.43 -142.51 -11.67 -142.8 -11.89C-143.09 -12.11 -143.4 -12.29 -143.71 -12.42C-144.02 -12.55 -144.34 -12.62 -144.66 -12.62C-145.25 -12.62 -145.81 -12.41 -146.35 -12.01C-146.89 -11.6 -147.38 -11.1 -147.8 -10.5C-148.23 -9.9 -148.56 -9.26 -148.81 -8.57C-149.06 -7.88 -149.18 -7.25 -149.18 -6.68ZM-145.06 -11.54C-144.24 -11.44 -143.66 -11.31 -143.31 -11.13C-142.96 -10.95 -142.78 -10.74 -142.77 -10.51C-142.76 -10.29 -142.9 -10.06 -143.18 -9.85C-143.47 -9.63 -143.83 -9.44 -144.26 -9.28C-144.7 -9.12 -145.18 -9 -145.71 -8.92C-146.24 -8.85 -146.76 -8.84 -147.25 -8.89C-147.3 -9.12 -147.25 -9.39 -147.09 -9.7C-146.93 -10.02 -146.73 -10.31 -146.49 -10.59C-146.26 -10.86 -146 -11.09 -145.73 -11.27C-145.45 -11.45 -145.23 -11.54 -145.06 -11.54Z M-136.47 -0.14C-136.45 -0.12 -136.39 -0.1 -136.28 -0.09C-136.18 -0.07 -136.06 -0.05 -135.94 -0.04C-135.82 -0.03 -135.7 -0.03 -135.6 -0.03C-135.5 -0.03 -135.42 -0.02 -135.39 0C-135.37 -1.33 -135.29 -2.69 -135.14 -4.08C-135 -5.47 -134.78 -6.76 -134.46 -7.96C-134.15 -9.15 -133.73 -10.19 -133.21 -11.08C-132.69 -11.97 -132.04 -12.58 -131.27 -12.9C-130.51 -12.9 -129.89 -12.66 -129.42 -12.18C-128.95 -11.69 -128.58 -11.07 -128.32 -10.3C-128.07 -9.53 -127.89 -8.69 -127.8 -7.76C-127.7 -6.83 -127.65 -5.93 -127.64 -5.06C-127.63 -4.19 -127.65 -3.4 -127.7 -2.69C-127.75 -1.98 -127.78 -1.45 -127.8 -1.11C-127.87 -0.63 -127.89 -0.32 -127.84 -0.16C-127.79 0 -127.71 0.09 -127.6 0.1C-127.49 0.11 -127.34 0.07 -127.17 -0.01C-127 -0.1 -126.83 -0.16 -126.66 -0.2C-126.66 -1.17 -126.65 -2.17 -126.63 -3.23C-126.61 -4.28 -126.63 -5.31 -126.68 -6.34C-126.72 -7.36 -126.82 -8.33 -126.96 -9.24C-127.1 -10.15 -127.33 -10.95 -127.64 -11.65C-127.96 -12.35 -128.38 -12.91 -128.92 -13.33C-129.46 -13.74 -130.15 -13.97 -130.98 -14.01C-131.51 -14.05 -131.98 -13.97 -132.39 -13.78C-132.8 -13.59 -133.16 -13.33 -133.48 -12.99C-133.8 -12.65 -134.07 -12.25 -134.29 -11.81C-134.51 -11.36 -134.69 -10.91 -134.85 -10.46C-135 -10 -135.11 -9.56 -135.19 -9.12C-135.26 -8.69 -135.32 -8.31 -135.36 -7.99L-135.36 -8.65C-135.36 -8.97 -135.37 -9.31 -135.4 -9.69C-135.43 -10.07 -135.47 -10.45 -135.53 -10.83C-135.59 -11.21 -135.68 -11.52 -135.81 -11.78C-135.95 -12.03 -136.11 -12.2 -136.31 -12.28C-136.51 -12.35 -136.75 -12.28 -137.03 -12.05L-137.03 -11.89C-137.03 -11.83 -137.03 -11.75 -137.02 -11.65C-137.01 -11.56 -137 -11.47 -136.99 -11.4C-136.98 -11.32 -136.98 -11.27 -136.98 -11.25C-136.92 -10.95 -136.88 -10.51 -136.85 -9.93C-136.82 -9.35 -136.8 -8.71 -136.78 -7.99C-136.76 -7.27 -136.74 -6.51 -136.72 -5.71C-136.7 -4.92 -136.68 -4.15 -136.65 -3.42C-136.62 -2.69 -136.59 -2.04 -136.57 -1.46C-136.54 -0.89 -136.5 -0.45 -136.47 -0.14Z M-122.93 -4.12C-122.93 -2.83 -122.56 -1.81 -121.82 -1.07C-121.08 -0.32 -120.08 0.06 -118.81 0.06C-118.41 0.06 -117.98 0.05 -117.53 0.03C-117.07 0.01 -116.63 -0.05 -116.21 -0.16C-115.78 -0.26 -115.38 -0.43 -115.01 -0.65C-114.64 -0.88 -114.36 -1.21 -114.15 -1.65C-114.13 -1.99 -114.11 -2.5 -114.1 -3.17C-114.1 -3.84 -114.1 -4.61 -114.1 -5.48C-114.11 -6.36 -114.13 -7.3 -114.16 -8.31C-114.19 -9.33 -114.21 -10.35 -114.23 -11.38C-114.25 -12.41 -114.27 -13.44 -114.29 -14.45C-114.31 -15.46 -114.32 -16.41 -114.33 -17.28C-114.34 -18.15 -114.34 -18.92 -114.33 -19.58C-114.32 -20.24 -114.31 -20.75 -114.29 -21.11C-114.29 -21.13 -114.28 -21.18 -114.28 -21.26C-114.27 -21.33 -114.26 -21.39 -114.26 -21.43C-114.26 -21.71 -114.32 -21.87 -114.45 -21.91C-114.57 -21.95 -114.89 -21.87 -115.4 -21.68L-115.23 -7.1C-115.53 -7.46 -115.82 -7.78 -116.09 -8.06C-116.37 -8.33 -116.66 -8.57 -116.97 -8.77C-117.29 -8.97 -117.62 -9.11 -117.97 -9.19C-118.32 -9.28 -118.72 -9.32 -119.18 -9.32C-119.78 -9.32 -120.31 -9.15 -120.77 -8.81C-121.22 -8.47 -121.61 -8.04 -121.93 -7.52C-122.26 -7 -122.5 -6.43 -122.67 -5.81C-122.84 -5.2 -122.93 -4.63 -122.93 -4.12ZM-121.79 -4.89C-121.79 -5.29 -121.71 -5.68 -121.54 -6.08C-121.37 -6.48 -121.14 -6.84 -120.87 -7.16C-120.59 -7.48 -120.28 -7.75 -119.92 -7.96C-119.56 -8.17 -119.18 -8.27 -118.78 -8.27C-118.17 -8.27 -117.65 -8.07 -117.2 -7.66C-116.76 -7.25 -116.39 -6.76 -116.09 -6.18C-115.8 -5.6 -115.58 -5 -115.44 -4.36C-115.3 -3.73 -115.23 -3.16 -115.23 -2.67C-115.23 -2.25 -115.37 -1.93 -115.65 -1.71C-115.94 -1.48 -116.29 -1.31 -116.7 -1.21C-117.12 -1.1 -117.56 -1.05 -118.01 -1.05L-119.18 -1.05C-119.71 -1.05 -120.14 -1.16 -120.48 -1.38C-120.83 -1.6 -121.09 -1.89 -121.28 -2.24C-121.47 -2.6 -121.6 -3.02 -121.68 -3.48C-121.75 -3.95 -121.79 -4.41 -121.79 -4.89Z M-96.7 -4.12C-96.7 -2.83 -96.34 -1.81 -95.6 -1.07C-94.86 -0.32 -93.85 0.06 -92.58 0.06C-92.19 0.06 -91.76 0.05 -91.31 0.03C-90.85 0.01 -90.41 -0.05 -89.98 -0.16C-89.56 -0.26 -89.16 -0.43 -88.79 -0.65C-88.42 -0.88 -88.13 -1.21 -87.92 -1.65C-87.9 -1.99 -87.89 -2.5 -87.88 -3.17C-87.87 -3.84 -87.87 -4.61 -87.88 -5.48C-87.89 -6.36 -87.91 -7.3 -87.94 -8.31C-87.97 -9.33 -87.99 -10.35 -88.01 -11.38C-88.03 -12.41 -88.05 -13.44 -88.07 -14.45C-88.08 -15.46 -88.1 -16.41 -88.11 -17.28C-88.12 -18.15 -88.12 -18.92 -88.11 -19.58C-88.1 -20.24 -88.08 -20.75 -88.07 -21.11C-88.07 -21.13 -88.06 -21.18 -88.05 -21.26C-88.04 -21.33 -88.04 -21.39 -88.04 -21.43C-88.04 -21.71 -88.1 -21.87 -88.22 -21.91C-88.35 -21.95 -88.66 -21.87 -89.17 -21.68L-89 -7.1C-89.31 -7.46 -89.6 -7.78 -89.87 -8.06C-90.14 -8.33 -90.44 -8.57 -90.75 -8.77C-91.06 -8.97 -91.4 -9.11 -91.75 -9.19C-92.1 -9.28 -92.5 -9.32 -92.95 -9.32C-93.56 -9.32 -94.09 -9.15 -94.54 -8.81C-95 -8.47 -95.39 -8.04 -95.71 -7.52C-96.03 -7 -96.28 -6.43 -96.45 -5.81C-96.62 -5.2 -96.7 -4.63 -96.7 -4.12ZM-95.57 -4.89C-95.57 -5.29 -95.48 -5.68 -95.31 -6.08C-95.14 -6.48 -94.92 -6.84 -94.64 -7.16C-94.37 -7.48 -94.05 -7.75 -93.69 -7.96C-93.33 -8.17 -92.95 -8.27 -92.56 -8.27C-91.95 -8.27 -91.42 -8.07 -90.98 -7.66C-90.53 -7.25 -90.16 -6.76 -89.87 -6.18C-89.58 -5.6 -89.36 -5 -89.22 -4.36C-89.07 -3.73 -89 -3.16 -89 -2.67C-89 -2.25 -89.15 -1.93 -89.43 -1.71C-89.71 -1.48 -90.06 -1.31 -90.48 -1.21C-90.9 -1.1 -91.33 -1.05 -91.79 -1.05L-92.95 -1.05C-93.48 -1.05 -93.92 -1.16 -94.26 -1.38C-94.6 -1.6 -94.87 -1.89 -95.06 -2.24C-95.25 -2.6 -95.38 -3.02 -95.45 -3.48C-95.53 -3.95 -95.57 -4.41 -95.57 -4.89Z M-83.65 -6.68C-83.71 -6.15 -83.73 -5.6 -83.72 -5.03C-83.71 -4.46 -83.66 -3.91 -83.56 -3.38C-83.47 -2.85 -83.33 -2.35 -83.14 -1.89C-82.95 -1.43 -82.7 -1.03 -82.4 -0.71C-82.1 -0.39 -81.73 -0.16 -81.29 -0.03C-80.86 0.1 -80.34 0.11 -79.76 0C-79.64 0 -79.43 -0.02 -79.13 -0.06C-78.83 -0.09 -78.5 -0.14 -78.15 -0.2C-77.8 -0.26 -77.47 -0.32 -77.16 -0.38C-76.84 -0.45 -76.61 -0.5 -76.46 -0.54C-76.44 -0.56 -76.39 -0.6 -76.32 -0.67C-76.24 -0.73 -76.17 -0.81 -76.09 -0.9C-76.01 -0.98 -75.95 -1.07 -75.89 -1.17C-75.83 -1.26 -75.81 -1.35 -75.81 -1.42C-76.09 -1.42 -76.45 -1.4 -76.89 -1.36C-77.32 -1.33 -77.79 -1.31 -78.28 -1.31C-78.77 -1.31 -79.27 -1.34 -79.77 -1.39C-80.27 -1.45 -80.72 -1.56 -81.12 -1.73C-81.52 -1.9 -81.85 -2.15 -82.1 -2.49C-82.36 -2.82 -82.48 -3.25 -82.48 -3.78L-82.48 -4.28C-82.48 -4.49 -82.47 -4.74 -82.46 -5.02C-82.44 -5.29 -82.41 -5.57 -82.38 -5.87C-82.36 -6.16 -82.32 -6.43 -82.29 -6.68C-82.25 -6.92 -82.2 -7.13 -82.14 -7.29C-82.09 -7.45 -82.02 -7.54 -81.94 -7.56L-75.95 -8.67C-75.78 -8.88 -75.7 -9.12 -75.71 -9.41C-75.72 -9.69 -75.79 -9.98 -75.92 -10.29C-76.05 -10.59 -76.24 -10.88 -76.47 -11.15C-76.71 -11.43 -76.98 -11.67 -77.27 -11.89C-77.56 -12.11 -77.87 -12.29 -78.18 -12.42C-78.49 -12.55 -78.81 -12.62 -79.13 -12.62C-79.72 -12.62 -80.28 -12.41 -80.82 -12.01C-81.36 -11.6 -81.85 -11.1 -82.27 -10.5C-82.7 -9.9 -83.03 -9.26 -83.28 -8.57C-83.53 -7.88 -83.65 -7.25 -83.65 -6.68ZM-79.53 -11.54C-78.71 -11.44 -78.13 -11.31 -77.78 -11.13C-77.43 -10.95 -77.25 -10.74 -77.24 -10.51C-77.23 -10.29 -77.37 -10.06 -77.65 -9.85C-77.94 -9.63 -78.3 -9.44 -78.73 -9.28C-79.17 -9.12 -79.65 -9 -80.18 -8.92C-80.71 -8.85 -81.22 -8.84 -81.72 -8.89C-81.77 -9.12 -81.72 -9.39 -81.56 -9.7C-81.4 -10.02 -81.2 -10.31 -80.96 -10.59C-80.73 -10.86 -80.47 -11.09 -80.2 -11.27C-79.92 -11.45 -79.7 -11.54 -79.53 -11.54Z M-71.62 -12.56L-64.85 0.14L-63.75 0.14C-63.37 -0.96 -63.04 -2.01 -62.75 -3.03C-62.47 -4.04 -62.2 -5.05 -61.96 -6.05C-61.71 -7.06 -61.48 -8.09 -61.26 -9.15C-61.04 -10.21 -60.81 -11.35 -60.56 -12.56C-60.56 -12.66 -60.6 -12.72 -60.68 -12.76C-60.75 -12.8 -60.85 -12.83 -60.98 -12.86C-61.1 -12.89 -61.24 -12.92 -61.39 -12.94C-61.54 -12.97 -61.68 -13.02 -61.81 -13.07L-64.48 -2.07L-70.74 -13.44Z M-56.94 -6.68C-57 -6.15 -57.02 -5.6 -57.01 -5.03C-57 -4.46 -56.95 -3.91 -56.86 -3.38C-56.76 -2.85 -56.62 -2.35 -56.43 -1.89C-56.24 -1.43 -56 -1.03 -55.69 -0.71C-55.39 -0.39 -55.02 -0.16 -54.58 -0.03C-54.15 0.1 -53.64 0.11 -53.05 0C-52.94 0 -52.73 -0.02 -52.42 -0.06C-52.12 -0.09 -51.79 -0.14 -51.44 -0.2C-51.09 -0.26 -50.76 -0.32 -50.45 -0.38C-50.14 -0.45 -49.9 -0.5 -49.75 -0.54C-49.73 -0.56 -49.69 -0.6 -49.61 -0.67C-49.54 -0.73 -49.46 -0.81 -49.38 -0.9C-49.31 -0.98 -49.24 -1.07 -49.18 -1.17C-49.13 -1.26 -49.1 -1.35 -49.1 -1.42C-49.38 -1.42 -49.74 -1.4 -50.18 -1.36C-50.62 -1.33 -51.08 -1.31 -51.57 -1.31C-52.06 -1.31 -52.56 -1.34 -53.06 -1.39C-53.57 -1.45 -54.02 -1.56 -54.41 -1.73C-54.81 -1.9 -55.14 -2.15 -55.39 -2.49C-55.65 -2.82 -55.78 -3.25 -55.78 -3.78L-55.78 -4.28C-55.78 -4.49 -55.77 -4.74 -55.75 -5.02C-55.73 -5.29 -55.71 -5.57 -55.68 -5.87C-55.65 -6.16 -55.62 -6.43 -55.58 -6.68C-55.54 -6.92 -55.49 -7.13 -55.44 -7.29C-55.38 -7.45 -55.31 -7.54 -55.24 -7.56L-49.24 -8.67C-49.07 -8.88 -48.99 -9.12 -49 -9.41C-49.01 -9.69 -49.08 -9.98 -49.21 -10.29C-49.35 -10.59 -49.53 -10.88 -49.77 -11.15C-50 -11.43 -50.27 -11.67 -50.56 -11.89C-50.86 -12.11 -51.16 -12.29 -51.47 -12.42C-51.79 -12.55 -52.1 -12.62 -52.42 -12.62C-53.01 -12.62 -53.58 -12.41 -54.12 -12.01C-54.66 -11.6 -55.14 -11.1 -55.56 -10.5C-55.99 -9.9 -56.33 -9.26 -56.57 -8.57C-56.82 -7.88 -56.94 -7.25 -56.94 -6.68ZM-52.82 -11.54C-52.01 -11.44 -51.43 -11.31 -51.07 -11.13C-50.72 -10.95 -50.54 -10.74 -50.53 -10.51C-50.53 -10.29 -50.66 -10.06 -50.95 -9.85C-51.23 -9.63 -51.59 -9.44 -52.03 -9.28C-52.46 -9.12 -52.95 -9 -53.48 -8.92C-54.01 -8.85 -54.52 -8.84 -55.01 -8.89C-55.07 -9.12 -55.02 -9.39 -54.85 -9.7C-54.69 -10.02 -54.49 -10.31 -54.26 -10.59C-54.02 -10.86 -53.76 -11.09 -53.49 -11.27C-53.22 -11.45 -52.99 -11.54 -52.82 -11.54Z M-43.94 -22.08C-43.94 -21.99 -43.95 -21.83 -43.96 -21.61C-43.97 -21.39 -43.98 -21.17 -43.99 -20.93C-44 -20.69 -44.01 -20.46 -44.02 -20.23C-44.03 -20.01 -44.03 -19.85 -44.03 -19.78C-44.01 -18.83 -43.98 -17.7 -43.94 -16.4C-43.91 -15.09 -43.86 -13.73 -43.82 -12.3C-43.77 -10.88 -43.73 -9.48 -43.69 -8.08C-43.65 -6.69 -43.61 -5.44 -43.56 -4.33C-43.51 -3.23 -43.48 -2.33 -43.45 -1.63C-43.42 -0.94 -43.4 -0.59 -43.38 -0.57L-42.89 0.03C-42.7 0.01 -42.57 -0.06 -42.48 -0.18C-42.4 -0.31 -42.33 -0.45 -42.3 -0.6C-42.26 -0.75 -42.24 -0.9 -42.24 -1.07C-42.24 -1.23 -42.23 -1.36 -42.21 -1.48C-42.21 -1.53 -42.21 -1.62 -42.2 -1.75C-42.19 -1.87 -42.18 -2 -42.17 -2.13C-42.16 -2.26 -42.15 -2.38 -42.14 -2.47C-42.13 -2.57 -42.13 -2.63 -42.13 -2.67C-42.14 -3.01 -42.16 -3.5 -42.18 -4.15C-42.2 -4.79 -42.23 -5.53 -42.25 -6.37C-42.28 -7.2 -42.31 -8.1 -42.34 -9.07C-42.37 -10.03 -42.4 -11.01 -42.44 -11.99C-42.48 -12.98 -42.51 -13.95 -42.55 -14.92C-42.59 -15.89 -42.62 -16.79 -42.65 -17.62C-42.68 -18.45 -42.71 -19.19 -42.74 -19.82C-42.77 -20.46 -42.78 -20.95 -42.78 -21.31C-42.89 -21.58 -43.05 -21.76 -43.25 -21.87C-43.45 -21.97 -43.68 -22.04 -43.94 -22.08Z M-37.48 -5.2C-37.48 -3.8 -37.26 -2.69 -36.81 -1.88C-36.37 -1.06 -35.81 -0.51 -35.14 -0.21C-34.47 0.08 -33.75 0.13 -32.98 -0.06C-32.21 -0.25 -31.49 -0.62 -30.82 -1.17C-30.15 -1.71 -29.59 -2.43 -29.16 -3.32C-28.72 -4.22 -28.5 -5.23 -28.5 -6.37C-28.46 -7.14 -28.54 -7.94 -28.73 -8.75C-28.92 -9.57 -29.2 -10.31 -29.57 -10.97C-29.94 -11.63 -30.38 -12.17 -30.9 -12.59C-31.42 -13.01 -31.99 -13.21 -32.59 -13.21C-33.18 -13.21 -33.71 -13.08 -34.19 -12.8C-34.66 -12.53 -35.08 -12.17 -35.44 -11.72C-35.8 -11.28 -36.1 -10.77 -36.36 -10.2C-36.62 -9.63 -36.83 -9.06 -37 -8.47C-37.17 -7.88 -37.29 -7.3 -37.37 -6.72C-37.44 -6.14 -37.48 -5.64 -37.48 -5.2ZM-36.43 -5.09C-36.43 -5.43 -36.4 -5.83 -36.33 -6.29C-36.27 -6.76 -36.16 -7.24 -36.02 -7.73C-35.88 -8.22 -35.7 -8.71 -35.49 -9.21C-35.28 -9.7 -35.03 -10.14 -34.74 -10.53C-34.45 -10.92 -34.12 -11.22 -33.76 -11.45C-33.4 -11.68 -32.99 -11.79 -32.54 -11.79C-32.06 -11.79 -31.64 -11.65 -31.27 -11.35C-30.9 -11.06 -30.59 -10.66 -30.34 -10.16C-30.08 -9.66 -29.88 -9.08 -29.74 -8.44C-29.6 -7.8 -29.54 -7.13 -29.58 -6.45C-29.62 -5.54 -29.81 -4.72 -30.17 -3.99C-30.52 -3.26 -30.94 -2.66 -31.43 -2.17C-31.92 -1.69 -32.45 -1.35 -33.02 -1.17C-33.59 -0.98 -34.12 -0.98 -34.6 -1.18C-35.08 -1.38 -35.49 -1.79 -35.83 -2.42C-36.18 -3.04 -36.37 -3.93 -36.43 -5.09Z M-23.21 -7.36C-22.88 -5.83 -22.65 -4.26 -22.5 -2.67C-22.34 -1.08 -22.26 0.53 -22.24 2.15C-22.22 3.77 -22.25 5.38 -22.32 6.99C-22.4 8.6 -22.5 10.19 -22.64 11.76C-22.62 11.75 -22.55 11.75 -22.42 11.78L-22.05 11.86C-21.93 11.89 -21.81 11.91 -21.7 11.91C-21.59 11.91 -21.53 11.9 -21.53 11.88C-21.38 10.65 -21.23 9.45 -21.09 8.28C-20.95 7.12 -20.83 6.02 -20.73 4.97C-20.64 3.93 -20.56 2.97 -20.51 2.09C-20.45 1.21 -20.44 0.43 -20.48 -0.26C-19.59 -0.18 -18.68 -0.29 -17.76 -0.58C-16.84 -0.88 -16.01 -1.31 -15.26 -1.89C-14.51 -2.47 -13.91 -3.16 -13.44 -3.98C-12.98 -4.79 -12.76 -5.69 -12.78 -6.68C-12.78 -7.45 -12.91 -8.18 -13.19 -8.87C-13.46 -9.55 -13.85 -10.15 -14.35 -10.66C-14.86 -11.17 -15.46 -11.57 -16.17 -11.86C-16.88 -12.16 -17.67 -12.3 -18.55 -12.3C-19.09 -12.3 -19.7 -12.2 -20.36 -11.98C-21.03 -11.76 -21.65 -11.46 -22.24 -11.07C-22.83 -10.68 -23.32 -10.22 -23.72 -9.68C-24.12 -9.14 -24.31 -8.54 -24.31 -7.9C-24.31 -7.79 -24.27 -7.69 -24.19 -7.6C-24.1 -7.52 -24 -7.45 -23.89 -7.4C-23.77 -7.36 -23.65 -7.32 -23.52 -7.3C-23.39 -7.28 -23.28 -7.3 -23.21 -7.36ZM-18.89 -10.71C-18.2 -10.71 -17.56 -10.63 -16.94 -10.47C-16.32 -10.31 -15.79 -10.06 -15.33 -9.7C-14.88 -9.35 -14.52 -8.91 -14.25 -8.38C-13.99 -7.85 -13.86 -7.22 -13.86 -6.48C-13.97 -5.68 -14.19 -5.02 -14.52 -4.48C-14.86 -3.94 -15.24 -3.49 -15.68 -3.13C-16.11 -2.77 -16.58 -2.49 -17.08 -2.29C-17.58 -2.09 -18.07 -1.93 -18.55 -1.82C-19.02 -1.71 -19.46 -1.63 -19.88 -1.59C-20.3 -1.55 -20.62 -1.52 -20.85 -1.48C-20.88 -1.67 -20.94 -1.95 -21 -2.32C-21.07 -2.69 -21.15 -3.1 -21.23 -3.55C-21.32 -4.01 -21.4 -4.48 -21.49 -4.97C-21.57 -5.47 -21.66 -5.94 -21.74 -6.39C-21.83 -6.85 -21.9 -7.26 -21.97 -7.62C-22.04 -7.98 -22.09 -8.25 -22.13 -8.44C-22.18 -8.86 -22.12 -9.21 -21.93 -9.49C-21.74 -9.78 -21.48 -10 -21.16 -10.17C-20.84 -10.34 -20.47 -10.47 -20.05 -10.56C-19.63 -10.64 -19.25 -10.69 -18.89 -10.71Z M-8.36 -11.08L-8.36 -10.73L-8.36 -10.34C-8.3 -9.87 -8.24 -9.3 -8.16 -8.62C-8.09 -7.95 -8.01 -7.25 -7.93 -6.52C-7.86 -5.79 -7.78 -5.07 -7.71 -4.36C-7.63 -3.65 -7.56 -3.02 -7.49 -2.46C-7.43 -1.9 -7.37 -1.44 -7.32 -1.08L-7.25 -0.54L-6.17 -0.54C-6.53 -1.89 -6.73 -3.14 -6.77 -4.32C-6.81 -5.49 -6.75 -6.55 -6.58 -7.49C-6.42 -8.43 -6.18 -9.23 -5.86 -9.89C-5.54 -10.55 -5.18 -11.03 -4.79 -11.31C-4.41 -11.59 -4.01 -11.67 -3.61 -11.55C-3.22 -11.43 -2.86 -11.05 -2.55 -10.43C-2.24 -9.8 -1.99 -8.91 -1.81 -7.74C-1.63 -6.58 -1.57 -5.09 -1.63 -3.27L-0.52 -3.5C-0.61 -3.87 -0.65 -4.36 -0.62 -4.94C-0.59 -5.53 -0.52 -6.16 -0.42 -6.82C-0.31 -7.48 -0.16 -8.15 0.04 -8.82C0.24 -9.5 0.45 -10.11 0.68 -10.66C0.9 -11.21 1.16 -11.66 1.44 -12.02C1.73 -12.38 2.03 -12.58 2.34 -12.62C2.65 -12.66 2.96 -12.5 3.28 -12.16C3.59 -11.82 3.89 -11.22 4.17 -10.34C4.23 -10.14 4.29 -9.78 4.34 -9.26C4.4 -8.75 4.47 -8.17 4.56 -7.5C4.64 -6.84 4.73 -6.13 4.81 -5.39C4.9 -4.64 4.97 -3.93 5.02 -3.25C5.08 -2.58 5.14 -1.99 5.19 -1.48C5.25 -0.97 5.28 -0.6 5.28 -0.37C5.56 -0.16 5.78 -0.08 5.92 -0.13C6.06 -0.18 6.17 -0.28 6.23 -0.44C6.3 -0.6 6.34 -0.8 6.36 -1.02C6.38 -1.25 6.39 -1.46 6.39 -1.65C6.35 -1.88 6.3 -2.23 6.25 -2.71C6.19 -3.2 6.13 -3.74 6.06 -4.35C6 -4.95 5.92 -5.59 5.83 -6.27C5.75 -6.94 5.67 -7.58 5.61 -8.18C5.54 -8.79 5.48 -9.34 5.42 -9.82C5.37 -10.3 5.32 -10.67 5.28 -10.91C5.15 -11.78 4.92 -12.45 4.61 -12.92C4.3 -13.38 3.94 -13.68 3.53 -13.83C3.12 -13.97 2.69 -13.97 2.23 -13.84C1.76 -13.71 1.32 -13.47 0.89 -13.13C0.46 -12.79 0.07 -12.37 -0.28 -11.86C-0.63 -11.36 -0.91 -10.82 -1.11 -10.23C-1.23 -10.7 -1.43 -11.12 -1.72 -11.48C-2.02 -11.84 -2.36 -12.13 -2.75 -12.36C-3.14 -12.59 -3.55 -12.73 -4 -12.77C-4.44 -12.82 -4.87 -12.77 -5.28 -12.62C-5.68 -12.47 -6.04 -12.19 -6.36 -11.79C-6.67 -11.4 -6.9 -10.87 -7.05 -10.23C-7.17 -10.57 -7.36 -10.8 -7.62 -10.91C-7.89 -11.03 -8.13 -11.08 -8.36 -11.08Z M10.72 -6.68C10.66 -6.15 10.64 -5.6 10.65 -5.03C10.66 -4.46 10.71 -3.91 10.8 -3.38C10.9 -2.85 11.04 -2.35 11.23 -1.89C11.42 -1.43 11.67 -1.03 11.97 -0.71C12.27 -0.39 12.64 -0.16 13.08 -0.03C13.51 0.1 14.02 0.11 14.61 0C14.73 0 14.93 -0.02 15.24 -0.06C15.54 -0.09 15.87 -0.14 16.22 -0.2C16.57 -0.26 16.9 -0.32 17.21 -0.38C17.53 -0.45 17.76 -0.5 17.91 -0.54C17.93 -0.56 17.97 -0.6 18.05 -0.67C18.13 -0.73 18.2 -0.81 18.28 -0.9C18.35 -0.98 18.42 -1.07 18.48 -1.17C18.53 -1.26 18.56 -1.35 18.56 -1.42C18.28 -1.42 17.92 -1.4 17.48 -1.36C17.05 -1.33 16.58 -1.31 16.09 -1.31C15.6 -1.31 15.1 -1.34 14.6 -1.39C14.1 -1.45 13.65 -1.56 13.25 -1.73C12.85 -1.9 12.52 -2.15 12.27 -2.49C12.01 -2.82 11.88 -3.25 11.88 -3.78L11.88 -4.28C11.88 -4.49 11.89 -4.74 11.91 -5.02C11.93 -5.29 11.96 -5.57 11.98 -5.87C12.01 -6.16 12.05 -6.43 12.08 -6.68C12.12 -6.92 12.17 -7.13 12.23 -7.29C12.28 -7.45 12.35 -7.54 12.42 -7.56L18.42 -8.67C18.59 -8.88 18.67 -9.12 18.66 -9.41C18.65 -9.69 18.58 -9.98 18.45 -10.29C18.32 -10.59 18.13 -10.88 17.89 -11.15C17.66 -11.43 17.39 -11.67 17.1 -11.89C16.81 -12.11 16.5 -12.29 16.19 -12.42C15.88 -12.55 15.56 -12.62 15.24 -12.62C14.65 -12.62 14.09 -12.41 13.55 -12.01C13.01 -11.6 12.52 -11.1 12.1 -10.5C11.67 -9.9 11.33 -9.26 11.09 -8.57C10.84 -7.88 10.72 -7.25 10.72 -6.68ZM14.84 -11.54C15.65 -11.44 16.24 -11.31 16.59 -11.13C16.94 -10.95 17.12 -10.74 17.13 -10.51C17.14 -10.29 17 -10.06 16.72 -9.85C16.43 -9.63 16.07 -9.44 15.64 -9.28C15.2 -9.12 14.72 -9 14.19 -8.92C13.66 -8.85 13.14 -8.84 12.65 -8.89C12.59 -9.12 12.65 -9.39 12.81 -9.7C12.97 -10.02 13.17 -10.31 13.4 -10.59C13.64 -10.86 13.9 -11.09 14.17 -11.27C14.45 -11.45 14.67 -11.54 14.84 -11.54Z M23.43 -0.14C23.45 -0.12 23.51 -0.1 23.62 -0.09C23.72 -0.07 23.84 -0.05 23.96 -0.04C24.08 -0.03 24.2 -0.03 24.3 -0.03C24.4 -0.03 24.47 -0.02 24.51 0C24.53 -1.33 24.61 -2.69 24.75 -4.08C24.9 -5.47 25.12 -6.76 25.44 -7.96C25.75 -9.15 26.17 -10.19 26.69 -11.08C27.21 -11.97 27.86 -12.58 28.63 -12.9C29.39 -12.9 30.01 -12.66 30.48 -12.18C30.95 -11.69 31.32 -11.07 31.57 -10.3C31.83 -9.53 32.01 -8.69 32.1 -7.76C32.2 -6.83 32.25 -5.93 32.26 -5.06C32.27 -4.19 32.25 -3.4 32.2 -2.69C32.15 -1.98 32.12 -1.45 32.1 -1.11C32.02 -0.63 32.01 -0.32 32.06 -0.16C32.11 0 32.19 0.09 32.3 0.1C32.41 0.11 32.56 0.07 32.73 -0.01C32.9 -0.1 33.07 -0.16 33.24 -0.2C33.24 -1.17 33.25 -2.17 33.27 -3.23C33.28 -4.28 33.27 -5.31 33.22 -6.34C33.18 -7.36 33.08 -8.33 32.94 -9.24C32.8 -10.15 32.57 -10.95 32.26 -11.65C31.94 -12.35 31.52 -12.91 30.98 -13.33C30.44 -13.74 29.75 -13.97 28.92 -14.01C28.39 -14.05 27.92 -13.97 27.51 -13.78C27.1 -13.59 26.74 -13.33 26.42 -12.99C26.09 -12.65 25.82 -12.25 25.61 -11.81C25.39 -11.36 25.2 -10.91 25.05 -10.46C24.9 -10 24.79 -9.56 24.71 -9.12C24.64 -8.69 24.58 -8.31 24.54 -7.99L24.54 -8.65C24.54 -8.97 24.53 -9.31 24.5 -9.69C24.47 -10.07 24.43 -10.45 24.37 -10.83C24.31 -11.21 24.22 -11.52 24.09 -11.78C23.95 -12.03 23.79 -12.2 23.59 -12.28C23.39 -12.35 23.15 -12.28 22.86 -12.05L22.86 -11.89C22.86 -11.83 22.87 -11.75 22.88 -11.65C22.89 -11.56 22.9 -11.47 22.91 -11.4C22.92 -11.32 22.92 -11.27 22.92 -11.25C22.98 -10.95 23.02 -10.51 23.05 -9.93C23.08 -9.35 23.1 -8.71 23.12 -7.99C23.14 -7.27 23.16 -6.51 23.18 -5.71C23.2 -4.92 23.22 -4.15 23.25 -3.42C23.28 -2.69 23.31 -2.04 23.33 -1.46C23.36 -0.89 23.4 -0.45 23.43 -0.14Z M40.92 -10.32C40.92 -9.71 40.88 -9.04 40.81 -8.3C40.73 -7.56 40.68 -6.81 40.65 -6.05C40.62 -5.3 40.65 -4.55 40.72 -3.82C40.8 -3.09 40.98 -2.44 41.26 -1.88C41.55 -1.31 41.97 -0.85 42.54 -0.5C43.11 -0.15 43.88 0.03 44.84 0.03C45.05 0.03 45.29 0 45.55 -0.04C45.82 -0.09 46.07 -0.17 46.31 -0.27C46.54 -0.37 46.75 -0.52 46.93 -0.7C47.11 -0.88 47.22 -1.11 47.26 -1.39C46.1 -1.13 45.17 -1.08 44.47 -1.24C43.77 -1.4 43.23 -1.69 42.85 -2.12C42.47 -2.54 42.24 -3.08 42.14 -3.74C42.05 -4.39 42.03 -5.1 42.09 -5.85C42.14 -6.61 42.26 -7.38 42.43 -8.16C42.6 -8.93 42.76 -9.66 42.91 -10.34C43.06 -10.4 43.29 -10.44 43.61 -10.46C43.92 -10.48 44.26 -10.5 44.63 -10.51C45 -10.53 45.34 -10.55 45.67 -10.57C45.99 -10.59 46.23 -10.6 46.38 -10.6L46.38 -11.99L42.97 -11.88C42.91 -12.45 42.9 -12.96 42.92 -13.41C42.95 -13.87 42.99 -14.26 43.04 -14.58C43.09 -14.9 43.11 -15.17 43.12 -15.39C43.13 -15.61 43.09 -15.77 43 -15.89C42.9 -16 42.73 -16.07 42.47 -16.1C42.21 -16.13 41.84 -16.1 41.35 -16.03C41.35 -15.48 41.35 -15.08 41.36 -14.82C41.37 -14.56 41.38 -14.34 41.39 -14.14C41.4 -13.94 41.39 -13.7 41.38 -13.41C41.36 -13.13 41.32 -12.66 41.26 -11.99L37.26 -11.71C37.31 -11.23 37.35 -10.86 37.38 -10.59C37.41 -10.31 37.47 -10.17 37.57 -10.17C37.78 -10.17 38.03 -10.19 38.34 -10.23C38.64 -10.27 38.96 -10.3 39.29 -10.33C39.62 -10.36 39.93 -10.38 40.22 -10.39C40.52 -10.4 40.75 -10.37 40.92 -10.32Z M65.33 -23.39C65.33 -23.29 65.32 -23.16 65.31 -22.98L65.28 -22.44C65.27 -22.26 65.26 -22.09 65.25 -21.94C65.25 -21.79 65.24 -21.7 65.24 -21.68C65.26 -20.85 65.27 -19.89 65.28 -18.8C65.29 -17.71 65.31 -16.57 65.34 -15.37C65.37 -14.18 65.4 -12.95 65.43 -11.68C65.45 -10.41 65.48 -9.18 65.51 -7.99C65.54 -6.79 65.57 -5.66 65.6 -4.6C65.62 -3.54 65.65 -2.61 65.67 -1.82C65.69 -1.02 65.7 -0.39 65.71 0.07C65.72 0.54 65.73 0.78 65.75 0.8C66.02 0.8 66.22 0.77 66.36 0.72C66.51 0.68 66.62 0.62 66.7 0.54C66.79 0.46 66.85 0.36 66.87 0.24C66.9 0.12 66.92 -0.03 66.92 -0.2C66.92 -1.13 66.91 -2.19 66.89 -3.38C66.87 -4.58 66.86 -5.84 66.85 -7.16C66.84 -8.49 66.82 -9.85 66.79 -11.24C66.76 -12.63 66.74 -13.98 66.72 -15.29C66.7 -16.6 66.69 -17.83 66.68 -19C66.67 -20.16 66.65 -21.18 66.63 -22.04C66.61 -22.9 66.6 -23.58 66.59 -24.08L66.58 -24.84C66.24 -24.97 65.98 -24.98 65.81 -24.88C65.64 -24.78 65.52 -24.62 65.44 -24.41C65.36 -24.2 65.33 -23.99 65.33 -23.79Z M87.17 -11.03L87.6 0.06C87.77 0.02 87.93 0 88.07 0.01C88.21 0.02 88.33 0.03 88.44 0.04C88.54 0.05 88.62 0.04 88.68 0.01C88.74 -0.01 88.76 -0.09 88.76 -0.2C88.78 -1.05 88.78 -1.93 88.75 -2.83C88.72 -3.73 88.67 -4.62 88.59 -5.51C88.52 -6.4 88.44 -7.29 88.37 -8.17C88.29 -9.05 88.22 -9.92 88.17 -10.77C88.05 -10.98 87.92 -11.07 87.76 -11.05C87.59 -11.04 87.4 -11.03 87.17 -11.03ZM85.53 -16.11C85.53 -15.73 85.61 -15.4 85.78 -15.1C85.95 -14.81 86.23 -14.66 86.6 -14.66C87.1 -14.66 87.51 -14.84 87.86 -15.19C88.2 -15.54 88.37 -15.94 88.37 -16.4C88.37 -16.66 88.3 -16.87 88.17 -17.01C88.04 -17.15 87.86 -17.25 87.66 -17.32C87.45 -17.39 87.23 -17.43 87 -17.45C86.78 -17.47 86.55 -17.48 86.32 -17.48C86.17 -17.48 86.04 -17.43 85.94 -17.33C85.83 -17.24 85.75 -17.13 85.68 -16.99C85.62 -16.86 85.57 -16.71 85.55 -16.55C85.53 -16.39 85.53 -16.25 85.53 -16.11ZM87.17 -15.97C87.25 -15.97 87.29 -15.92 87.29 -15.83C87.29 -15.73 87.25 -15.69 87.17 -15.69C87.12 -15.69 87.09 -15.73 87.09 -15.83C87.09 -15.92 87.12 -15.97 87.17 -15.97Z M92.84 -4.86C92.84 -4.2 92.95 -3.57 93.17 -2.97C93.38 -2.37 93.69 -1.85 94.09 -1.41C94.49 -0.96 94.96 -0.61 95.5 -0.34C96.04 -0.08 96.63 0.06 97.27 0.06C97.67 0.06 98.16 0 98.74 -0.11C99.31 -0.23 99.86 -0.4 100.38 -0.63C100.91 -0.85 101.35 -1.15 101.71 -1.52C102.07 -1.89 102.25 -2.32 102.25 -2.81C101.79 -2.81 101.36 -2.72 100.95 -2.53C100.55 -2.34 100.14 -2.14 99.75 -1.93C99.35 -1.72 98.94 -1.53 98.52 -1.34C98.11 -1.15 97.67 -1.05 97.22 -1.05C96.61 -0.94 96.1 -1.02 95.68 -1.31C95.26 -1.59 94.93 -1.96 94.67 -2.42C94.42 -2.87 94.23 -3.38 94.12 -3.94C94 -4.49 93.94 -5.01 93.92 -5.48C93.92 -5.9 94.02 -6.42 94.23 -7.05C94.44 -7.67 94.72 -8.28 95.06 -8.87C95.4 -9.45 95.8 -9.96 96.26 -10.37C96.73 -10.79 97.23 -11 97.76 -11C98.12 -11 98.4 -10.82 98.59 -10.46C98.79 -10.1 98.95 -9.69 99.06 -9.24C99.18 -8.78 99.26 -8.34 99.3 -7.91C99.35 -7.49 99.39 -7.22 99.4 -7.1L100.11 -7.1C100.08 -7.33 100.06 -7.62 100.07 -7.97C100.08 -8.32 100.08 -8.7 100.07 -9.11C100.06 -9.52 100.03 -9.91 99.99 -10.3C99.94 -10.69 99.84 -11.04 99.7 -11.34C99.56 -11.64 99.36 -11.86 99.09 -12.01C98.83 -12.15 98.48 -12.19 98.04 -12.13C97.19 -12.13 96.44 -11.89 95.8 -11.4C95.15 -10.9 94.61 -10.29 94.18 -9.56C93.74 -8.83 93.41 -8.04 93.18 -7.19C92.95 -6.34 92.84 -5.56 92.84 -4.86Z M109.9 -10.32C109.9 -9.71 109.86 -9.04 109.79 -8.3C109.71 -7.56 109.66 -6.81 109.63 -6.05C109.6 -5.3 109.63 -4.55 109.7 -3.82C109.78 -3.09 109.96 -2.44 110.24 -1.88C110.53 -1.31 110.95 -0.85 111.52 -0.5C112.09 -0.15 112.86 0.03 113.82 0.03C114.03 0.03 114.27 0 114.53 -0.04C114.8 -0.09 115.05 -0.17 115.29 -0.27C115.52 -0.37 115.73 -0.52 115.91 -0.7C116.09 -0.88 116.2 -1.11 116.24 -1.39C115.08 -1.13 114.15 -1.08 113.45 -1.24C112.75 -1.4 112.21 -1.69 111.83 -2.12C111.46 -2.54 111.22 -3.08 111.12 -3.74C111.03 -4.39 111.01 -5.1 111.07 -5.85C111.12 -6.61 111.24 -7.38 111.41 -8.16C111.58 -8.93 111.74 -9.66 111.89 -10.34C112.04 -10.4 112.27 -10.44 112.59 -10.46C112.9 -10.48 113.24 -10.5 113.61 -10.51C113.98 -10.53 114.33 -10.55 114.65 -10.57C114.97 -10.59 115.21 -10.6 115.36 -10.6L115.36 -11.99L111.95 -11.88C111.89 -12.45 111.88 -12.96 111.91 -13.41C111.93 -13.87 111.97 -14.26 112.02 -14.58C112.07 -14.9 112.09 -15.17 112.1 -15.39C112.11 -15.61 112.07 -15.77 111.98 -15.89C111.88 -16 111.71 -16.07 111.45 -16.1C111.19 -16.13 110.82 -16.1 110.33 -16.03C110.33 -15.48 110.33 -15.08 110.34 -14.82C110.35 -14.56 110.36 -14.34 110.37 -14.14C110.38 -13.94 110.38 -13.7 110.36 -13.41C110.34 -13.13 110.3 -12.66 110.24 -11.99L106.24 -11.71C106.29 -11.23 106.34 -10.86 106.36 -10.59C106.39 -10.31 106.45 -10.17 106.55 -10.17C106.76 -10.17 107.01 -10.19 107.32 -10.23C107.62 -10.27 107.94 -10.3 108.27 -10.33C108.6 -10.36 108.91 -10.38 109.21 -10.39C109.5 -10.4 109.73 -10.37 109.9 -10.32Z M133.48 -4.12C133.48 -2.83 133.85 -1.81 134.59 -1.07C135.33 -0.32 136.33 0.06 137.6 0.06C138 0.06 138.43 0.05 138.88 0.03C139.34 0.01 139.78 -0.05 140.2 -0.16C140.63 -0.26 141.03 -0.43 141.4 -0.65C141.77 -0.88 142.05 -1.21 142.26 -1.65C142.28 -1.99 142.3 -2.5 142.31 -3.17C142.32 -3.84 142.32 -4.61 142.31 -5.48C142.3 -6.36 142.28 -7.3 142.25 -8.31C142.22 -9.33 142.2 -10.35 142.18 -11.38C142.16 -12.41 142.14 -13.44 142.12 -14.45C142.1 -15.46 142.09 -16.41 142.08 -17.28C142.07 -18.15 142.07 -18.92 142.08 -19.58C142.09 -20.24 142.1 -20.75 142.12 -21.11C142.12 -21.13 142.13 -21.18 142.14 -21.26C142.14 -21.33 142.15 -21.39 142.15 -21.43C142.15 -21.71 142.09 -21.87 141.96 -21.91C141.84 -21.95 141.52 -21.87 141.01 -21.68L141.18 -7.1C140.88 -7.46 140.59 -7.78 140.32 -8.06C140.04 -8.33 139.75 -8.57 139.44 -8.77C139.12 -8.97 138.79 -9.11 138.44 -9.19C138.09 -9.28 137.69 -9.32 137.23 -9.32C136.63 -9.32 136.1 -9.15 135.64 -8.81C135.19 -8.47 134.8 -8.04 134.48 -7.52C134.15 -7 133.91 -6.43 133.74 -5.81C133.57 -5.2 133.48 -4.63 133.48 -4.12ZM134.62 -4.89C134.62 -5.29 134.7 -5.68 134.87 -6.08C135.05 -6.48 135.27 -6.84 135.54 -7.16C135.82 -7.48 136.13 -7.75 136.49 -7.96C136.85 -8.17 137.23 -8.27 137.63 -8.27C138.24 -8.27 138.76 -8.07 139.21 -7.66C139.65 -7.25 140.02 -6.76 140.32 -6.18C140.61 -5.6 140.83 -5 140.97 -4.36C141.11 -3.73 141.18 -3.16 141.18 -2.67C141.18 -2.25 141.04 -1.93 140.76 -1.71C140.47 -1.48 140.12 -1.31 139.71 -1.21C139.29 -1.1 138.85 -1.05 138.4 -1.05L137.23 -1.05C136.7 -1.05 136.27 -1.16 135.93 -1.38C135.59 -1.6 135.32 -1.89 135.13 -2.24C134.94 -2.6 134.81 -3.02 134.73 -3.48C134.66 -3.95 134.62 -4.41 134.62 -4.89Z M147.7 -11.03L148.13 0.06C148.3 0.02 148.46 0 148.6 0.01C148.74 0.02 148.86 0.03 148.97 0.04C149.07 0.05 149.15 0.04 149.21 0.01C149.27 -0.01 149.29 -0.09 149.29 -0.2C149.31 -1.05 149.31 -1.93 149.28 -2.83C149.25 -3.73 149.2 -4.62 149.12 -5.51C149.05 -6.4 148.97 -7.29 148.9 -8.17C148.82 -9.05 148.75 -9.92 148.7 -10.77C148.58 -10.98 148.45 -11.07 148.29 -11.05C148.12 -11.04 147.93 -11.03 147.7 -11.03ZM146.05 -16.11C146.05 -15.73 146.14 -15.4 146.31 -15.1C146.48 -14.81 146.76 -14.66 147.13 -14.66C147.63 -14.66 148.04 -14.84 148.38 -15.19C148.73 -15.54 148.9 -15.94 148.9 -16.4C148.9 -16.66 148.83 -16.87 148.7 -17.01C148.56 -17.15 148.39 -17.25 148.19 -17.32C147.98 -17.39 147.76 -17.43 147.53 -17.45C147.3 -17.47 147.08 -17.48 146.85 -17.48C146.7 -17.48 146.57 -17.43 146.47 -17.33C146.36 -17.24 146.28 -17.13 146.21 -16.99C146.14 -16.86 146.1 -16.71 146.08 -16.55C146.06 -16.39 146.05 -16.25 146.05 -16.11ZM147.7 -15.97C147.78 -15.97 147.82 -15.92 147.82 -15.83C147.82 -15.73 147.78 -15.69 147.7 -15.69C147.65 -15.69 147.62 -15.73 147.62 -15.83C147.62 -15.92 147.65 -15.97 147.7 -15.97Z M153.57 -6.68C153.51 -6.15 153.49 -5.6 153.5 -5.03C153.51 -4.46 153.56 -3.91 153.65 -3.38C153.75 -2.85 153.89 -2.35 154.08 -1.89C154.27 -1.43 154.52 -1.03 154.82 -0.71C155.12 -0.39 155.49 -0.16 155.93 -0.03C156.36 0.1 156.87 0.11 157.46 0C157.57 0 157.78 -0.02 158.09 -0.06C158.39 -0.09 158.72 -0.14 159.07 -0.2C159.42 -0.26 159.75 -0.32 160.06 -0.38C160.37 -0.45 160.61 -0.5 160.76 -0.54C160.78 -0.56 160.82 -0.6 160.9 -0.67C160.98 -0.73 161.05 -0.81 161.13 -0.9C161.2 -0.98 161.27 -1.07 161.33 -1.17C161.38 -1.26 161.41 -1.35 161.41 -1.42C161.13 -1.42 160.77 -1.4 160.33 -1.36C159.9 -1.33 159.43 -1.31 158.94 -1.31C158.45 -1.31 157.95 -1.34 157.45 -1.39C156.94 -1.45 156.49 -1.56 156.1 -1.73C155.7 -1.9 155.37 -2.15 155.12 -2.49C154.86 -2.82 154.73 -3.25 154.73 -3.78L154.73 -4.28C154.73 -4.49 154.74 -4.74 154.76 -5.02C154.78 -5.29 154.8 -5.57 154.83 -5.87C154.86 -6.16 154.89 -6.43 154.93 -6.68C154.97 -6.92 155.02 -7.13 155.07 -7.29C155.13 -7.45 155.2 -7.54 155.27 -7.56L161.27 -8.67C161.44 -8.88 161.52 -9.12 161.51 -9.41C161.5 -9.69 161.43 -9.98 161.3 -10.29C161.16 -10.59 160.98 -10.88 160.74 -11.15C160.51 -11.43 160.24 -11.67 159.95 -11.89C159.65 -12.11 159.35 -12.29 159.04 -12.42C158.73 -12.55 158.41 -12.62 158.09 -12.62C157.5 -12.62 156.94 -12.41 156.4 -12.01C155.86 -11.6 155.37 -11.1 154.95 -10.5C154.52 -9.9 154.18 -9.26 153.94 -8.57C153.69 -7.88 153.57 -7.25 153.57 -6.68ZM157.69 -11.54C158.5 -11.44 159.09 -11.31 159.44 -11.13C159.79 -10.95 159.97 -10.74 159.98 -10.51C159.99 -10.29 159.85 -10.06 159.56 -9.85C159.28 -9.63 158.92 -9.44 158.48 -9.28C158.05 -9.12 157.57 -9 157.03 -8.92C156.5 -8.85 155.99 -8.84 155.5 -8.89C155.44 -9.12 155.5 -9.39 155.66 -9.7C155.82 -10.02 156.02 -10.31 156.25 -10.59C156.49 -10.86 156.75 -11.09 157.02 -11.27C157.3 -11.45 157.52 -11.54 157.69 -11.54Z M166.28 -0.14C166.3 -0.12 166.36 -0.1 166.47 -0.09C166.57 -0.07 166.68 -0.05 166.81 -0.04C166.93 -0.03 167.04 -0.03 167.15 -0.03C167.25 -0.03 167.32 -0.02 167.36 0C167.38 -1.33 167.46 -2.69 167.6 -4.08C167.75 -5.47 167.97 -6.76 168.29 -7.96C168.6 -9.15 169.01 -10.19 169.54 -11.08C170.06 -11.97 170.71 -12.58 171.48 -12.9C172.24 -12.9 172.86 -12.66 173.33 -12.18C173.8 -11.69 174.17 -11.07 174.42 -10.3C174.68 -9.53 174.85 -8.69 174.95 -7.76C175.04 -6.83 175.1 -5.93 175.11 -5.06C175.11 -4.19 175.1 -3.4 175.05 -2.69C175 -1.98 174.97 -1.45 174.95 -1.11C174.87 -0.63 174.86 -0.32 174.91 -0.16C174.95 0 175.03 0.09 175.15 0.1C175.26 0.11 175.4 0.07 175.57 -0.01C175.74 -0.1 175.92 -0.16 176.09 -0.2C176.09 -1.17 176.1 -2.17 176.11 -3.23C176.13 -4.28 176.12 -5.31 176.07 -6.34C176.02 -7.36 175.93 -8.33 175.79 -9.24C175.65 -10.15 175.42 -10.95 175.11 -11.65C174.79 -12.35 174.37 -12.91 173.83 -13.33C173.29 -13.74 172.6 -13.97 171.77 -14.01C171.24 -14.05 170.77 -13.97 170.36 -13.78C169.95 -13.59 169.59 -13.33 169.27 -12.99C168.94 -12.65 168.67 -12.25 168.46 -11.81C168.24 -11.36 168.05 -10.91 167.9 -10.46C167.75 -10 167.64 -9.56 167.56 -9.12C167.48 -8.69 167.43 -8.31 167.39 -7.99L167.39 -8.65C167.39 -8.97 167.38 -9.31 167.35 -9.69C167.32 -10.07 167.28 -10.45 167.22 -10.83C167.16 -11.21 167.07 -11.52 166.94 -11.78C166.8 -12.03 166.64 -12.2 166.44 -12.28C166.24 -12.35 166 -12.28 165.71 -12.05L165.71 -11.89C165.71 -11.83 165.72 -11.75 165.73 -11.65C165.74 -11.56 165.75 -11.47 165.76 -11.4C165.77 -11.32 165.77 -11.27 165.77 -11.25C165.83 -10.95 165.87 -10.51 165.9 -9.93C165.93 -9.35 165.95 -8.71 165.97 -7.99C165.99 -7.27 166.01 -6.51 166.03 -5.71C166.04 -4.92 166.07 -4.15 166.1 -3.42C166.13 -2.69 166.15 -2.04 166.18 -1.46C166.21 -0.89 166.24 -0.45 166.28 -0.14Z M181.78 -2.3C181.78 -1.92 181.91 -1.6 182.18 -1.32C182.44 -1.05 182.76 -0.81 183.13 -0.63C183.5 -0.44 183.88 -0.29 184.27 -0.18C184.66 -0.08 184.96 -0.02 185.19 0C185.74 0.06 186.31 -0.02 186.9 -0.23C187.48 -0.44 188.02 -0.72 188.5 -1.09C188.98 -1.46 189.38 -1.89 189.69 -2.39C190.01 -2.88 190.16 -3.4 190.16 -3.95C190.22 -4.71 190.14 -5.32 189.91 -5.8C189.68 -6.27 189.36 -6.64 188.96 -6.89C188.55 -7.15 188.08 -7.32 187.55 -7.4C187.02 -7.49 186.47 -7.53 185.9 -7.53C185.33 -7.53 184.78 -7.52 184.24 -7.49C183.7 -7.46 183.22 -7.45 182.79 -7.45C182.36 -7.45 182.02 -7.5 181.77 -7.6C181.51 -7.71 181.38 -7.9 181.38 -8.18C181.38 -8.73 181.49 -9.19 181.71 -9.55C181.93 -9.91 182.21 -10.19 182.56 -10.4C182.91 -10.61 183.31 -10.76 183.74 -10.84C184.18 -10.93 184.61 -10.97 185.05 -10.97C185.47 -11.06 185.84 -11.06 186.17 -10.97C186.5 -10.87 186.79 -10.74 187.02 -10.56C187.26 -10.38 187.46 -10.19 187.63 -10C187.81 -9.81 187.95 -9.67 188.08 -9.56C188.2 -9.46 188.29 -9.44 188.36 -9.51C188.43 -9.57 188.48 -9.77 188.52 -10.09C188.52 -10.56 188.41 -10.93 188.19 -11.2C187.97 -11.46 187.71 -11.66 187.39 -11.78C187.08 -11.9 186.74 -11.98 186.37 -12.01C186 -12.03 185.67 -12.05 185.39 -12.05C184.76 -12.05 184.15 -11.99 183.54 -11.88C182.94 -11.76 182.39 -11.57 181.89 -11.3C181.4 -11.02 181 -10.65 180.69 -10.19C180.37 -9.72 180.22 -9.12 180.22 -8.38C180.22 -8.14 180.28 -7.88 180.42 -7.6C180.55 -7.33 180.72 -7.07 180.93 -6.83C181.14 -6.6 181.37 -6.4 181.64 -6.24C181.9 -6.08 182.18 -6 182.46 -6C183.58 -6.15 184.52 -6.22 185.28 -6.21C186.03 -6.2 186.66 -6.15 187.17 -6.05C187.67 -5.96 188.05 -5.82 188.32 -5.64C188.58 -5.46 188.77 -5.27 188.88 -5.07C189 -4.87 189.06 -4.68 189.07 -4.49C189.08 -4.3 189.07 -4.14 189.06 -4.01C189.06 -3.57 188.94 -3.17 188.71 -2.8C188.49 -2.43 188.19 -2.12 187.83 -1.86C187.47 -1.61 187.08 -1.41 186.65 -1.26C186.23 -1.12 185.82 -1.05 185.42 -1.05C185.08 -1.05 184.76 -1.11 184.47 -1.24C184.17 -1.36 183.88 -1.5 183.6 -1.66C183.32 -1.82 183.03 -1.97 182.73 -2.1C182.44 -2.24 182.12 -2.3 181.78 -2.3Z M197.88 -10.32C197.88 -9.71 197.84 -9.04 197.76 -8.3C197.69 -7.56 197.63 -6.81 197.61 -6.05C197.58 -5.3 197.6 -4.55 197.68 -3.82C197.75 -3.09 197.93 -2.44 198.22 -1.88C198.5 -1.31 198.93 -0.85 199.5 -0.5C200.06 -0.15 200.83 0.03 201.8 0.03C202.01 0.03 202.24 0 202.51 -0.04C202.77 -0.09 203.02 -0.17 203.26 -0.27C203.5 -0.37 203.71 -0.52 203.89 -0.7C204.07 -0.88 204.18 -1.11 204.21 -1.39C203.06 -1.13 202.13 -1.08 201.43 -1.24C200.73 -1.4 200.19 -1.69 199.81 -2.12C199.43 -2.54 199.19 -3.08 199.1 -3.74C199 -4.39 198.98 -5.1 199.04 -5.85C199.1 -6.61 199.21 -7.38 199.38 -8.16C199.55 -8.93 199.71 -9.66 199.87 -10.34C200.02 -10.4 200.25 -10.44 200.56 -10.46C200.87 -10.48 201.22 -10.5 201.58 -10.51C201.95 -10.53 202.3 -10.55 202.62 -10.57C202.94 -10.59 203.18 -10.6 203.33 -10.6L203.33 -11.99L199.92 -11.88C199.87 -12.45 199.85 -12.96 199.88 -13.41C199.91 -13.87 199.95 -14.26 199.99 -14.58C200.04 -14.9 200.07 -15.17 200.08 -15.39C200.09 -15.61 200.05 -15.77 199.95 -15.89C199.86 -16 199.68 -16.07 199.43 -16.1C199.17 -16.13 198.8 -16.1 198.3 -16.03C198.3 -15.48 198.31 -15.08 198.32 -14.82C198.33 -14.56 198.34 -14.34 198.35 -14.14C198.35 -13.94 198.35 -13.7 198.33 -13.41C198.31 -13.13 198.27 -12.66 198.22 -11.99L194.21 -11.71C194.27 -11.23 194.31 -10.86 194.34 -10.59C194.37 -10.31 194.43 -10.17 194.52 -10.17C194.73 -10.17 194.99 -10.19 195.29 -10.23C195.59 -10.27 195.91 -10.3 196.24 -10.33C196.57 -10.36 196.89 -10.38 197.18 -10.39C197.47 -10.4 197.71 -10.37 197.88 -10.32Z M208.29 -6.68C208.23 -6.15 208.21 -5.6 208.22 -5.03C208.23 -4.46 208.28 -3.91 208.37 -3.38C208.47 -2.85 208.61 -2.35 208.8 -1.89C208.99 -1.43 209.24 -1.03 209.54 -0.71C209.84 -0.39 210.21 -0.16 210.65 -0.03C211.08 0.1 211.59 0.11 212.18 0C212.3 0 212.5 -0.02 212.81 -0.06C213.11 -0.09 213.44 -0.14 213.79 -0.2C214.14 -0.26 214.47 -0.32 214.78 -0.38C215.09 -0.45 215.33 -0.5 215.48 -0.54C215.5 -0.56 215.54 -0.6 215.62 -0.67C215.7 -0.73 215.77 -0.81 215.85 -0.9C215.92 -0.98 215.99 -1.07 216.05 -1.17C216.1 -1.26 216.13 -1.35 216.13 -1.42C215.85 -1.42 215.49 -1.4 215.05 -1.36C214.62 -1.33 214.15 -1.31 213.66 -1.31C213.17 -1.31 212.67 -1.34 212.17 -1.39C211.67 -1.45 211.22 -1.56 210.82 -1.73C210.42 -1.9 210.09 -2.15 209.84 -2.49C209.58 -2.82 209.45 -3.25 209.45 -3.78L209.45 -4.28C209.45 -4.49 209.46 -4.74 209.48 -5.02C209.5 -5.29 209.52 -5.57 209.55 -5.87C209.58 -6.16 209.61 -6.43 209.65 -6.68C209.69 -6.92 209.74 -7.13 209.79 -7.29C209.85 -7.45 209.92 -7.54 209.99 -7.56L215.99 -8.67C216.16 -8.88 216.24 -9.12 216.23 -9.41C216.22 -9.69 216.15 -9.98 216.02 -10.29C215.89 -10.59 215.7 -10.88 215.46 -11.15C215.23 -11.43 214.96 -11.67 214.67 -11.89C214.37 -12.11 214.07 -12.29 213.76 -12.42C213.45 -12.55 213.13 -12.62 212.81 -12.62C212.22 -12.62 211.66 -12.41 211.12 -12.01C210.58 -11.6 210.09 -11.1 209.67 -10.5C209.24 -9.9 208.9 -9.26 208.66 -8.57C208.41 -7.88 208.29 -7.25 208.29 -6.68ZM212.41 -11.54C213.22 -11.44 213.81 -11.31 214.16 -11.13C214.51 -10.95 214.69 -10.74 214.7 -10.51C214.71 -10.29 214.57 -10.06 214.28 -9.85C214 -9.63 213.64 -9.44 213.2 -9.28C212.77 -9.12 212.29 -9 211.76 -8.92C211.22 -8.85 210.71 -8.84 210.22 -8.89C210.16 -9.12 210.22 -9.39 210.38 -9.7C210.54 -10.02 210.74 -10.31 210.97 -10.59C211.21 -10.86 211.47 -11.09 211.74 -11.27C212.02 -11.45 212.24 -11.54 212.41 -11.54Z M221 -0.14C221.02 -0.12 221.08 -0.1 221.19 -0.09C221.29 -0.07 221.4 -0.05 221.53 -0.04C221.65 -0.03 221.76 -0.03 221.87 -0.03C221.97 -0.03 222.04 -0.02 222.08 0C222.1 -1.33 222.18 -2.69 222.32 -4.08C222.47 -5.47 222.69 -6.76 223.01 -7.96C223.32 -9.15 223.74 -10.19 224.26 -11.08C224.78 -11.97 225.43 -12.58 226.2 -12.9C226.96 -12.9 227.58 -12.66 228.05 -12.18C228.52 -11.69 228.89 -11.07 229.14 -10.3C229.4 -9.53 229.57 -8.69 229.67 -7.76C229.76 -6.83 229.82 -5.93 229.83 -5.06C229.84 -4.19 229.82 -3.4 229.77 -2.69C229.72 -1.98 229.69 -1.45 229.67 -1.11C229.59 -0.63 229.58 -0.32 229.63 -0.16C229.67 0 229.75 0.09 229.87 0.1C229.98 0.11 230.12 0.07 230.29 -0.01C230.47 -0.1 230.64 -0.16 230.81 -0.2C230.81 -1.17 230.82 -2.17 230.83 -3.23C230.85 -4.28 230.84 -5.31 230.79 -6.34C230.74 -7.36 230.65 -8.33 230.51 -9.24C230.37 -10.15 230.14 -10.95 229.83 -11.65C229.51 -12.35 229.09 -12.91 228.55 -13.33C228.01 -13.74 227.32 -13.97 226.49 -14.01C225.96 -14.05 225.49 -13.97 225.08 -13.78C224.67 -13.59 224.31 -13.33 223.99 -12.99C223.66 -12.65 223.39 -12.25 223.18 -11.81C222.96 -11.36 222.77 -10.91 222.62 -10.46C222.47 -10 222.36 -9.56 222.28 -9.12C222.21 -8.69 222.15 -8.31 222.11 -7.99L222.11 -8.65C222.11 -8.97 222.1 -9.31 222.07 -9.69C222.04 -10.07 222 -10.45 221.94 -10.83C221.88 -11.21 221.79 -11.52 221.66 -11.78C221.52 -12.03 221.36 -12.2 221.16 -12.28C220.96 -12.35 220.72 -12.28 220.43 -12.05L220.43 -11.89C220.43 -11.83 220.44 -11.75 220.45 -11.65C220.46 -11.56 220.47 -11.47 220.48 -11.4C220.49 -11.32 220.49 -11.27 220.49 -11.25C220.55 -10.95 220.59 -10.51 220.62 -9.93C220.65 -9.35 220.67 -8.71 220.69 -7.99C220.71 -7.27 220.73 -6.51 220.75 -5.71C220.77 -4.92 220.79 -4.15 220.82 -3.42C220.85 -2.69 220.87 -2.04 220.9 -1.46C220.93 -0.89 220.96 -0.45 221 -0.14Z"></path></g><g id="SvgjsG51483" class="B1ibyq62-" transform="translate(351.6616281189904, -28.894839281475086) scale(1.1466206064077418)" light-content="false" non-strokable="false" fill="url(#SvgjsLinearGradientJYzrmxEo4B)"><path d="M17.2 47.8c.3 0 .5-.2.5-.5V27c0-.4.4-.8.8-.8h55.2c.4 0 .8.4.8.8v15.2c0 .3.2.5.5.5s.5-.2.5-.5V27c0-1-.8-1.8-1.8-1.8H18.5c-1 0-1.8.8-1.8 1.8v20.3c0 .2.2.5.5.5zm13.3 12.6h14.6c.3 0 .5-.2.5-.5s-.2-.5-.5-.5H30.5c-.3 0-.5.2-.5.5s.2.5.5.5zm15-3.8c0-.3-.2-.5-.5-.5H26.7c-.3 0-.5.2-.5.5s.2.5.5.5H45c.2 0 .5-.3.5-.5z"></path><path d="M71.7 42.7c.3 0 .5-.2.5-.5V29c0-.3-.2-.5-.5-.5H20.5c-.3 0-.5.2-.5.5v18.3c0 .3.2.5.5.5s.5-.2.5-.5V29.5h50.3v12.8c-.1.2.1.4.4.4zM40 73.8h-2.4l2.3-1.7c.1-.1.2-.2.2-.4l.6-6.1h4.5c.3 0 .5-.2.5-.5s-.2-.5-.5-.5H30.5c-.3 0-.5.2-.5.5s.2.5.5.5h9.1l-.6 5.8-2.5 1.8c-.1.1-.2.2-.2.4 0 .1 0 .5.3.8.1.2.4.3.9.3H40c.3 0 .5-.2.5-.5s-.2-.4-.5-.4zm45.4-4.2V47.1c0-.3-.2-.5-.5-.5H49.4c-.3 0-.5.2-.5.5v22.5c0 .3.2.5.5.5h35.5c.3 0 .5-.2.5-.5zm-1-.5H49.9V47.6h34.5v21.5z"></path><path d="M92.6 71.4h-4.8V45.3c0-.9-.8-1.7-1.7-1.7H48.2c-.9 0-1.7.8-1.7 1.7v26.1h-4.8c-.6 0-1.1.5-1.1 1.1v.6c0 1 4.6 1.7 4.6 1.7H89s4.6-.7 4.6-1.7v-.6c.1-.6-.4-1.1-1-1.1zM47.5 45.3c0-.4.3-.7.7-.7H86c.4 0 .7.3.7.7v26.1H72.5c-.1 0-.3.1-.4.2s-.1.2-.1.3c0 0 0 .1-.1.1h-9.5s-.1 0-.1-.1 0-.3-.1-.4c-.1-.1-.2-.2-.4-.2H47.5v-26zm45.2 27.6c-.7.3-3.2.9-3.6.9H45.4c-.4 0-2.9-.6-3.7-.9v-.4s0-.1.1-.1h19.7c.2.4.6.6 1 .6H72c.4 0 .8-.3 1-.6h19.7s.1 0 .1.1v.4zm-73.4.9H7.9c-.3 0-.5-.2-.5-.5V50.2c0-.3.2-.5.5-.5h15.8c.3 0 .5.2.5.5v6.9c0 .3.2.5.5.5s.5-.2.5-.5v-6.9c0-.8-.7-1.5-1.5-1.5H7.9c-.8 0-1.5.7-1.5 1.5v23.1c0 .8.7 1.5 1.5 1.5h11.4c.3 0 .5-.2.5-.5s-.3-.5-.5-.5z"></path><path d="M23 57.6c.3 0 .5-.2.5-.5v-5.5c0-.3-.2-.5-.5-.5H8.6c-.3 0-.5.2-.5.5v19.8c0 .3.2.5.5.5h10.7c.3 0 .5-.2.5-.5s-.2-.5-.5-.5H9.1V52.1h13.4v5c0 .3.2.5.5.5z"></path><circle cx="15.8" cy="50.4" r=".3"></circle><circle cx="15.8" cy="72.9" r=".6"></circle><path d="M27.6 58.6h-5.5c-.8 0-1.5.7-1.5 1.5v13.3c0 .8.7 1.5 1.5 1.5h5.5c.8 0 1.5-.7 1.5-1.5V60c0-.8-.6-1.4-1.5-1.4zm-5.4 1h5.5c.3 0 .5.2.5.5v.9h-6.4v-1c-.1-.2.1-.4.4-.4zm5.9 11.3h-6.4v-9h6.4v9zm-.5 2.9h-5.5c-.3 0-.5-.2-.5-.5v-1.4H28v1.4c.1.3-.1.5-.4.5z"></path><circle cx="24.9" cy="72.9" r=".6"></circle></g></g></g></svg>